<?xml version="1.0" standalone="no"?>
<!DOCTYPE svg PUBLIC "-//W3C//DTD SVG 1.1//EN" "http://www.w3.org/Graphics/SVG/1.1/DTD/svg11.dtd" >
<svg xmlns="http://www.w3.org/2000/svg">
<metadata>Generated by IcoMoon</metadata>
<defs>
<font id="icomoon" horiz-adv-x="1024">
<font-face units-per-em="1024" ascent="870.4" descent="-153.6" />
<missing-glyph horiz-adv-x="1024" />
<glyph unicode="&#x20;" d="" />
<glyph unicode="&#xe800;" glyph-name="info" d="M512 83.712c-20.48 0-37.888 17.408-37.888 37.888v278.528c0 20.48 17.408 37.888 37.888 37.888s37.888-16.384 37.888-37.888v-278.528c0-20.48-17.408-37.888-37.888-37.888zM512 533.248c27.648 0 50.176 22.528 50.176 50.176s-22.528 50.176-50.176 50.176-50.176-22.528-50.176-50.176 22.528-50.176 50.176-50.176zM1024 352c0 282.624-229.376 512-512 512s-512-229.376-512-512 229.376-512 512-512 512 229.376 512 512zM949.248 352c0-240.64-196.608-437.248-437.248-437.248s-437.248 196.608-437.248 437.248 196.608 437.248 437.248 437.248 437.248-196.608 437.248-437.248z" />
<glyph unicode="&#xe801;" glyph-name="favourite" d="M806.912-136.448c-6.144 0-12.288 2.048-17.408 4.096l-277.504 146.432-277.504-146.432c-12.288-6.144-26.624-5.12-37.888 3.072s-16.384 21.504-14.336 34.816l53.248 309.248-224.256 219.136c-10.24 10.24-13.312 23.552-9.216 36.864s15.36 22.528 28.672 24.576l310.272 45.056 139.264 281.6c11.264 23.552 52.224 23.552 63.488 0l139.264-281.6 310.272-45.056c13.312-2.048 24.576-11.264 28.672-24.576s1.024-26.624-8.192-36.864l-225.28-219.136 52.224-301.056c1.024-4.096 2.048-9.216 2.048-14.336 0-19.456-16.384-34.816-35.84-35.84 0 0 0 0 0 0zM512 89.856c6.144 0 11.264-1.024 16.384-4.096l230.4-120.832-44.032 257.024c-2.048 11.264 2.048 23.552 10.24 31.744l186.368 181.248-257.024 36.864c-12.288 2.048-21.504 9.216-27.648 20.48l-114.688 232.448-114.688-233.472c-6.144-10.24-15.36-17.408-27.648-19.456l-257.024-36.864 186.368-181.248c8.192-8.192 12.288-20.48 10.24-31.744l-44.032-257.024 230.4 120.832c5.12 3.072 10.24 4.096 16.384 4.096z" />
<glyph unicode="&#xe802;" glyph-name="question" d="M461.824 94.976c0 27.648 22.528 50.176 50.176 50.176s50.176-22.528 50.176-50.176-22.528-49.152-50.176-49.152-50.176 21.504-50.176 49.152zM1024 352c0 282.624-229.376 512-512 512s-512-229.376-512-512 229.376-512 512-512 512 229.376 512 512zM949.248 352c0-240.64-196.608-437.248-437.248-437.248s-437.248 196.608-437.248 437.248 196.608 437.248 437.248 437.248 437.248-196.608 437.248-437.248zM320.512 527.104c-2.048-6.144-2.048-12.288-2.048-16.384 0-10.24 3.072-18.432 11.264-23.552 7.168-5.12 16.384-7.168 25.6-7.168 8.192 0 14.336 1.024 19.456 3.072 5.12 3.072 10.24 9.216 13.312 20.48 2.048 6.144 6.144 14.336 10.24 24.576s11.264 20.48 20.48 29.696 21.504 18.432 36.864 25.6c14.336 7.168 33.792 10.24 56.32 10.24 35.84 0 64.512-9.216 84.992-27.648 20.48-17.408 29.696-44.032 29.696-78.848 0-15.36-2.048-29.696-6.144-40.96s-9.216-22.528-16.384-30.72c-7.168-9.216-15.36-17.408-24.576-25.6-8.192-7.168-17.408-14.336-27.648-21.504-10.24-8.192-20.48-15.36-29.696-23.552-10.24-8.192-18.432-17.408-25.6-27.648-8.192-10.24-14.336-21.504-18.432-33.792-5.12-13.312-7.168-28.672-7.168-45.056v-10.24c0-12.288 3.072-21.504 8.192-25.6 6.144-5.12 14.336-7.168 25.6-7.168 12.288 0 20.48 2.048 26.624 7.168 6.144 4.096 8.192 13.312 8.192 25.6 0 10.24 1.024 18.432 3.072 25.6s5.12 14.336 9.216 21.504c5.12 7.168 11.264 14.336 20.48 22.528 8.192 7.168 19.456 16.384 32.768 26.624 12.288 8.192 24.576 18.432 35.84 28.672 12.288 10.24 23.552 21.504 32.768 34.816 9.216 12.288 17.408 27.648 23.552 44.032s8.192 35.84 8.192 57.344c0 26.624-4.096 51.2-13.312 71.68s-22.528 38.912-38.912 53.248c-17.408 14.336-36.864 25.6-60.416 32.768-22.528 8.192-48.128 11.264-76.8 11.264-31.744 0-59.392-4.096-80.896-12.288-22.528-9.216-40.96-19.456-55.296-31.744-14.336-11.264-25.6-23.552-33.792-35.84-7.168-12.288-13.312-21.504-16.384-28.672-5.12-8.192-8.192-16.384-9.216-22.528z" />
<glyph unicode="&#xe803;" glyph-name="list-view" d="M988.16 30.464h-952.32c-19.456 0-35.84 16.384-35.84 35.84s16.384 35.84 35.84 35.84h952.32c19.456 0 35.84-16.384 35.84-35.84s-16.384-35.84-35.84-35.84zM1024 352c0 19.456-16.384 35.84-35.84 35.84h-952.32c-19.456 0-35.84-16.384-35.84-35.84s16.384-35.84 35.84-35.84h952.32c19.456 0 35.84 16.384 35.84 35.84zM1024 637.696c0 19.456-16.384 35.84-35.84 35.84h-952.32c-19.456 0-35.84-16.384-35.84-35.84s16.384-35.84 35.84-35.84h952.32c19.456 0 35.84 16.384 35.84 35.84z" />
<glyph unicode="&#xe804;" glyph-name="screen" d="M243.712 208.64h-162.816c-24.576 0-39.936 20.48-36.864 46.080s25.6 46.080 48.128 46.080h157.696c22.528 0 40.96-20.48 38.912-46.080-1.024-25.6-20.48-46.080-45.056-46.080zM303.104 449.28c2.048 25.6-14.336 46.080-34.816 46.080h-136.192c-20.48 0-40.96-20.48-44.032-46.080s10.24-46.080 31.744-46.080h142.336c21.504 0 39.936 20.48 40.96 46.080zM317.44 644.864c2.048 24.576-12.288 46.080-30.72 46.080h-115.712c-18.432 0-35.84-21.504-39.936-46.080-3.072-25.6 9.216-46.080 28.672-46.080h121.856c18.432 0 34.816 20.48 35.84 46.080zM657.408 254.72c-1.024 25.6-20.48 46.080-44.032 46.080h-207.872c-23.552 0-43.008-20.48-44.032-46.080s17.408-46.080 40.96-46.080h215.040c23.552 0 41.984 20.48 39.936 46.080zM641.024 449.28c-2.048 25.6-19.456 46.080-39.936 46.080h-187.392c-21.504 0-38.912-20.48-39.936-46.080s15.36-46.080 36.864-46.080h193.536c21.504 0 37.888 20.48 36.864 46.080zM623.616 644.864c-1.024 24.576-17.408 46.080-35.84 46.080h-166.912c-18.432 0-33.792-21.504-34.816-46.080s13.312-46.080 32.768-46.080h173.056c18.432 0 32.768 20.48 31.744 46.080zM974.848 254.72c-4.096 25.6-25.6 46.080-49.152 46.080h-156.672c-23.552 0-40.96-20.48-38.912-46.080 1.024-25.6 21.504-46.080 46.080-46.080h162.816c24.576 0 39.936 20.48 35.84 46.080zM274.432 59.136c1.024 25.6-18.432 46.080-43.008 46.080h-178.176c-25.6 0-49.152-20.48-53.248-46.080-3.072-24.576 15.36-46.080 40.96-46.080h184.32c26.624 0 48.128 21.504 49.152 46.080zM674.816 59.136c-1.024 25.6-23.552 46.080-48.128 46.080h-229.376c-25.6 0-47.104-20.48-48.128-46.080-1.024-24.576 19.456-46.080 45.056-46.080h235.52c26.624 0 46.080 21.504 45.056 46.080zM1024 59.136c-4.096 25.6-28.672 46.080-53.248 46.080h-178.176c-25.6 0-45.056-20.48-43.008-46.080 1.024-24.576 23.552-46.080 49.152-46.080h185.344c25.6 0 43.008 21.504 39.936 46.080zM926.72 449.28c-4.096 25.6-24.576 46.080-45.056 46.080h-136.192c-20.48 0-35.84-20.48-34.816-46.080 2.048-25.6 20.48-46.080 41.984-46.080h142.336c21.504 0 35.84 20.48 31.744 46.080zM878.592 644.864c-4.096 24.576-22.528 46.080-40.96 46.080h-115.712c-18.432 0-31.744-21.504-29.696-46.080 1.024-25.6 18.432-46.080 36.864-46.080h121.856c19.456 0 30.72 20.48 27.648 46.080z" />
<glyph unicode="&#xe805;" glyph-name="minus" d="M988.16 316.16h-952.32c-19.456 0-35.84 16.384-35.84 35.84s16.384 35.84 35.84 35.84h952.32c19.456 0 35.84-16.384 35.84-35.84s-16.384-35.84-35.84-35.84z" />
<glyph unicode="&#xe806;" glyph-name="filter" d="M421.888-160c-5.12 0-10.24 1.024-15.36 3.072-12.288 6.144-20.48 18.432-20.48 32.768v441.344l-334.848 333.824c-7.168 6.144-10.24 15.36-10.24 24.576v152.576c0 19.456 15.36 35.84 35.84 35.84h870.4c20.48 0 35.84-16.384 35.84-35.84v-149.504c0-9.216-3.072-18.432-10.24-25.6l-337.92-337.92v-301.056c0-11.264-5.12-21.504-13.312-28.672l-177.152-138.24c-7.168-5.12-14.336-7.168-22.528-7.168zM112.64 690.944l334.848-333.824c6.144-7.168 10.24-16.384 10.24-25.6v-382.976l105.472 82.944v299.008c0 9.216 4.096 18.432 10.24 24.576l338.944 338.944v98.304h-799.744v-101.376z" />
<glyph unicode="&#xe807;" glyph-name="calendar" d="M985.088 864h-946.176c-21.504 0-38.912-17.408-38.912-38.912v-946.176c0-21.504 17.408-38.912 38.912-38.912h946.176c21.504 0 38.912 17.408 38.912 38.912v946.176c0 21.504-17.408 38.912-38.912 38.912zM164.864 787.2v-80.896c0-20.48 17.408-37.888 38.912-37.888s38.912 17.408 38.912 37.888v80.896h128v-80.896c0-20.48 17.408-37.888 38.912-37.888s37.888 17.408 37.888 37.888v80.896h129.024v-80.896c0-20.48 17.408-37.888 37.888-37.888 21.504 0 38.912 17.408 38.912 37.888v80.896h128v-80.896c0-20.48 17.408-37.888 38.912-37.888s37.888 17.408 37.888 37.888v80.896h89.088v-189.44h-870.4v189.44h88.064zM76.8-83.2v629.76h870.4v-629.76h-870.4zM385.024 374.528h-1.024c-9.216 9.216-14.336 22.528-14.336 35.84 0 14.336 6.144 27.648 15.36 36.864v0c9.216 9.216 21.504 15.36 35.84 15.36s26.624-6.144 35.84-15.36v0c9.216-9.216 15.36-22.528 15.36-36.864 0-13.312-5.12-26.624-15.36-35.84-9.216-9.216-21.504-15.36-35.84-15.36s-26.624 6.144-35.84 15.36v0zM385.024 195.328h-1.024c-9.216 9.216-14.336 22.528-14.336 36.864 0 13.312 5.12 26.624 14.336 35.84h1.024c9.216 9.216 21.504 15.36 35.84 15.36s26.624-6.144 35.84-15.36v0c9.216-9.216 15.36-21.504 15.36-35.84s-6.144-27.648-15.36-36.864v0c-9.216-9.216-21.504-15.36-35.84-15.36s-26.624 6.144-35.84 15.36v0 0zM749.568 374.528v0c-9.216 9.216-15.36 22.528-15.36 35.84 0 14.336 6.144 27.648 15.36 36.864v0c9.216 9.216 21.504 15.36 35.84 15.36s26.624-6.144 35.84-15.36h1.024c9.216-9.216 14.336-22.528 14.336-36.864 0-13.312-5.12-26.624-14.336-35.84-10.24-9.216-22.528-15.36-36.864-15.36s-26.624 6.144-35.84 15.36v0 0zM567.296 374.528v0c-10.24 9.216-15.36 22.528-15.36 35.84 0 14.336 6.144 27.648 15.36 36.864v0c9.216 9.216 21.504 15.36 35.84 15.36s26.624-6.144 35.84-15.36v0c9.216-9.216 15.36-22.528 15.36-36.864 0-13.312-5.12-26.624-15.36-35.84-9.216-9.216-21.504-15.36-35.84-15.36s-26.624 6.144-35.84 15.36v0 0zM385.024 17.152v0c-9.216 9.216-15.36 21.504-15.36 35.84s6.144 26.624 15.36 35.84v0c9.216 9.216 21.504 15.36 35.84 15.36s26.624-6.144 35.84-15.36v0c9.216-9.216 15.36-21.504 15.36-35.84s-6.144-26.624-15.36-35.84v0c-9.216-10.24-21.504-15.36-35.84-15.36s-26.624 5.12-35.84 15.36v0 0zM567.296 17.152v0c-10.24 9.216-15.36 21.504-15.36 35.84s6.144 26.624 15.36 35.84v0c9.216 9.216 21.504 15.36 35.84 15.36s26.624-6.144 35.84-15.36v0c9.216-9.216 15.36-21.504 15.36-35.84s-5.12-26.624-15.36-35.84v0c-9.216-10.24-21.504-15.36-35.84-15.36s-26.624 5.12-35.84 15.36v0 0zM201.728 195.328v0c-9.216 9.216-14.336 22.528-14.336 36.864 0 13.312 5.12 26.624 14.336 35.84v0c10.24 9.216 22.528 15.36 36.864 15.36 13.312 0 26.624-6.144 35.84-15.36v0c9.216-9.216 15.36-21.504 15.36-35.84s-6.144-27.648-15.36-36.864v0c-9.216-9.216-22.528-15.36-35.84-15.36-14.336 0-26.624 6.144-36.864 15.36v0 0zM201.728 17.152v0c-9.216 9.216-14.336 21.504-14.336 35.84s5.12 26.624 14.336 35.84v0c10.24 9.216 22.528 15.36 36.864 15.36 13.312 0 26.624-6.144 35.84-15.36v0c9.216-9.216 15.36-21.504 15.36-35.84s-6.144-26.624-15.36-35.84v0c-9.216-10.24-22.528-15.36-35.84-15.36-14.336 0-26.624 5.12-36.864 15.36v0 0zM567.296 195.328v0c-10.24 9.216-15.36 22.528-15.36 36.864 0 13.312 6.144 26.624 15.36 35.84v0c9.216 9.216 21.504 15.36 35.84 15.36s26.624-6.144 35.84-15.36v0c9.216-9.216 15.36-21.504 15.36-35.84s-5.12-27.648-15.36-36.864v0c-9.216-9.216-21.504-15.36-35.84-15.36s-26.624 6.144-35.84 15.36v0 0zM749.568 195.328v0c-9.216 9.216-15.36 22.528-15.36 36.864 0 13.312 6.144 26.624 15.36 35.84v0c9.216 9.216 21.504 15.36 35.84 15.36s26.624-6.144 35.84-15.36h1.024c9.216-9.216 14.336-21.504 14.336-35.84s-5.12-27.648-14.336-36.864h-1.024c-9.216-9.216-21.504-15.36-35.84-15.36s-26.624 6.144-35.84 15.36v0 0zM385.024 374.528h-1.024c-9.216 9.216-14.336 22.528-14.336 35.84 0 14.336 6.144 27.648 15.36 36.864v0c9.216 9.216 21.504 15.36 35.84 15.36s26.624-6.144 35.84-15.36v0c9.216-9.216 15.36-22.528 15.36-36.864 0-13.312-5.12-26.624-15.36-35.84-9.216-9.216-21.504-15.36-35.84-15.36s-26.624 6.144-35.84 15.36v0zM385.024 195.328h-1.024c-9.216 9.216-14.336 22.528-14.336 36.864 0 13.312 5.12 26.624 14.336 35.84h1.024c9.216 9.216 21.504 15.36 35.84 15.36s26.624-6.144 35.84-15.36v0c9.216-9.216 15.36-21.504 15.36-35.84s-6.144-27.648-15.36-36.864v0c-9.216-9.216-21.504-15.36-35.84-15.36s-26.624 6.144-35.84 15.36v0 0zM749.568 374.528v0c-9.216 9.216-15.36 22.528-15.36 35.84 0 14.336 6.144 27.648 15.36 36.864v0c9.216 9.216 21.504 15.36 35.84 15.36s26.624-6.144 35.84-15.36h1.024c9.216-9.216 14.336-22.528 14.336-36.864 0-13.312-5.12-26.624-14.336-35.84-10.24-9.216-22.528-15.36-36.864-15.36s-26.624 6.144-35.84 15.36v0 0zM567.296 374.528v0c-10.24 9.216-15.36 22.528-15.36 35.84 0 14.336 6.144 27.648 15.36 36.864v0c9.216 9.216 21.504 15.36 35.84 15.36s26.624-6.144 35.84-15.36v0c9.216-9.216 15.36-22.528 15.36-36.864 0-13.312-5.12-26.624-15.36-35.84-9.216-9.216-21.504-15.36-35.84-15.36s-26.624 6.144-35.84 15.36v0 0zM385.024 17.152v0c-9.216 9.216-15.36 21.504-15.36 35.84s6.144 26.624 15.36 35.84v0c9.216 9.216 21.504 15.36 35.84 15.36s26.624-6.144 35.84-15.36v0c9.216-9.216 15.36-21.504 15.36-35.84s-6.144-26.624-15.36-35.84v0c-9.216-10.24-21.504-15.36-35.84-15.36s-26.624 5.12-35.84 15.36v0 0zM567.296 17.152v0c-10.24 9.216-15.36 21.504-15.36 35.84s6.144 26.624 15.36 35.84v0c9.216 9.216 21.504 15.36 35.84 15.36s26.624-6.144 35.84-15.36v0c9.216-9.216 15.36-21.504 15.36-35.84s-5.12-26.624-15.36-35.84v0c-9.216-10.24-21.504-15.36-35.84-15.36s-26.624 5.12-35.84 15.36v0 0zM201.728 195.328v0c-9.216 9.216-14.336 22.528-14.336 36.864 0 13.312 5.12 26.624 14.336 35.84v0c10.24 9.216 22.528 15.36 36.864 15.36 13.312 0 26.624-6.144 35.84-15.36v0c9.216-9.216 15.36-21.504 15.36-35.84s-6.144-27.648-15.36-36.864v0c-9.216-9.216-22.528-15.36-35.84-15.36-14.336 0-26.624 6.144-36.864 15.36v0 0zM201.728 17.152v0c-9.216 9.216-14.336 21.504-14.336 35.84s5.12 26.624 14.336 35.84v0c10.24 9.216 22.528 15.36 36.864 15.36 13.312 0 26.624-6.144 35.84-15.36v0c9.216-9.216 15.36-21.504 15.36-35.84s-6.144-26.624-15.36-35.84v0c-9.216-10.24-22.528-15.36-35.84-15.36-14.336 0-26.624 5.12-36.864 15.36v0 0zM567.296 195.328v0c-10.24 9.216-15.36 22.528-15.36 36.864 0 13.312 6.144 26.624 15.36 35.84v0c9.216 9.216 21.504 15.36 35.84 15.36s26.624-6.144 35.84-15.36v0c9.216-9.216 15.36-21.504 15.36-35.84s-5.12-27.648-15.36-36.864v0c-9.216-9.216-21.504-15.36-35.84-15.36s-26.624 6.144-35.84 15.36v0 0zM749.568 195.328v0c-9.216 9.216-15.36 22.528-15.36 36.864 0 13.312 6.144 26.624 15.36 35.84v0c9.216 9.216 21.504 15.36 35.84 15.36s26.624-6.144 35.84-15.36h1.024c9.216-9.216 14.336-21.504 14.336-35.84s-5.12-27.648-14.336-36.864h-1.024c-9.216-9.216-21.504-15.36-35.84-15.36s-26.624 6.144-35.84 15.36v0 0z" />
<glyph unicode="&#xe808;" glyph-name="mute" d="M749.568-70.912c-6.144 0-12.288 2.048-17.408 5.12l-259.072 199.68h-198.656c-16.384 0-29.696 13.312-29.696 28.672v378.88c0 16.384 13.312 29.696 29.696 29.696h198.656l259.072 198.656c8.192 6.144 20.48 7.168 30.72 2.048 10.24-4.096 16.384-14.336 16.384-25.6v-788.48c0-11.264-6.144-21.504-16.384-25.6-4.096-2.048-8.192-3.072-13.312-3.072zM304.128 192.256h178.176c7.168 0 13.312-2.048 18.432-6.144l219.136-167.936v667.648l-219.136-167.936c-5.12-4.096-11.264-6.144-18.432-6.144h-178.176v-319.488z" />
<glyph unicode="&#xe809;" glyph-name="power-and-industrial" d="M825.344-160h-200.704c-17.408 0-31.744 12.288-34.816 29.696l-14.336 86.016c-1.024 4.096-1.024 8.192 0 12.288l44.032 260.096c3.072 16.384 17.408 29.696 34.816 29.696h112.64c17.408 0 32.768-13.312 34.816-29.696l59.392-346.112c1.024-10.24-1.024-21.504-8.192-29.696-7.168-7.168-16.384-12.288-27.648-12.288zM655.36-88.32h128l-46.080 274.432h-52.224l-38.912-224.256 9.216-50.176zM542.72-160h-355.328c-10.24 0-20.48 4.096-27.648 12.288-6.144 8.192-9.216 19.456-7.168 29.696l87.040 509.952c2.048 17.408 17.408 29.696 34.816 29.696h182.272c17.408 0 31.744-12.288 34.816-29.696l87.040-509.952c1.024-10.24-2.048-21.504-8.192-29.696-7.168-7.168-17.408-12.288-27.648-12.288zM229.376-88.32h271.36l-74.752 439.296h-121.856l-74.752-439.296zM665.6 449.28c-18.432 0-36.864 3.072-54.272 7.168-15.36 4.096-29.696 10.24-44.032 17.408-4.096 2.048-7.168 4.096-10.24 6.144-7.168-1.024-13.312-2.048-19.456-3.072-11.264 0-22.528 0-33.792 1.024-8.192-6.144-16.384-11.264-25.6-15.36-25.6-11.264-53.248-13.312-79.872-6.144-30.72 9.216-54.272 26.624-70.656 52.224-1.024 1.024-2.048 3.072-3.072 4.096-15.36 26.624-19.456 59.392-12.288 88.064 0 2.048 0 4.096 1.024 5.12 6.144 20.48 17.408 38.912 31.744 53.248 1.024 1.024 2.048 2.048 3.072 3.072 4.096 4.096 9.216 8.192 14.336 11.264 0 2.048 1.024 4.096 1.024 7.168 0 1.024 0 2.048 1.024 3.072 11.264 39.936 36.864 74.752 72.704 97.28 25.6 14.336 53.248 23.552 82.944 23.552 20.48 20.48 46.080 36.864 74.752 47.104 39.936 14.336 82.944 16.384 123.904 5.12 53.248-14.336 98.304-49.152 125.952-96.256 27.648-48.128 34.816-103.424 20.48-157.696-14.336-53.248-49.152-98.304-96.256-124.928-31.744-18.432-67.584-28.672-103.424-28.672zM563.2 554.752c8.192 0 15.36-3.072 21.504-7.168 5.12-4.096 11.264-7.168 17.408-11.264 8.192-4.096 18.432-8.192 27.648-10.24 34.816-9.216 72.704-4.096 103.424 13.312 31.744 18.432 54.272 47.104 63.488 82.944 9.216 34.816 4.096 70.656-14.336 102.4-17.408 31.744-47.104 53.248-81.92 63.488-26.624 7.168-55.296 6.144-80.896-4.096-22.528-8.192-41.984-21.504-57.344-38.912-7.168-9.216-19.456-14.336-30.72-12.288-19.456 2.048-39.936-3.072-56.32-13.312-19.456-12.288-33.792-29.696-40.96-52.224 0-2.048-1.024-4.096-2.048-6.144 0-3.072-1.024-7.168-1.024-10.24s-1.024-5.12-1.024-7.168c-3.072-10.24-10.24-20.48-20.48-25.6-4.096-2.048-8.192-4.096-12.288-7.168 0-1.024 0-1.024-1.024-2.048-6.144-5.12-11.264-12.288-13.312-20.48-1.024-1.024-1.024-2.048-1.024-3.072-3.072-11.264-2.048-23.552 3.072-33.792 1.024-1.024 2.048-2.048 2.048-3.072 6.144-11.264 16.384-19.456 28.672-22.528 13.312-4.096 23.552-2.048 32.768 2.048 7.168 3.072 12.288 7.168 16.384 11.264 9.216 10.24 22.528 14.336 34.816 11.264 11.264-2.048 21.504-3.072 30.72-2.048 8.192 1.024 14.336 2.048 22.528 4.096 3.072 1.024 7.168 2.048 10.24 2.048z" />
<glyph unicode="&#xe80a;" glyph-name="search" d="M1013.76-99.584l-190.464 192.512c70.656 81.92 113.664 187.392 113.664 304.128 0 257.024-209.92 466.944-467.968 466.944-259.072 0-468.992-209.92-468.992-466.944s209.92-466.944 468.992-466.944c115.712 0 221.184 41.984 303.104 111.616l190.464-191.488c7.168-7.168 16.384-10.24 25.6-10.24s18.432 3.072 25.6 10.24c13.312 14.336 13.312 36.864 0 50.176zM71.68 397.056c0 218.112 178.176 395.264 397.312 395.264s396.288-177.152 396.288-395.264c0-218.112-178.176-395.264-396.288-395.264s-397.312 177.152-397.312 395.264z" />
<glyph unicode="&#xe80b;" glyph-name="wind" d="M1021.952-6.4c-12.288 40.96-87.040 100.352-169.984 155.648 37.888 132.096-3.072 276.48-107.52 368.64l40.96 4.096c13.312 1.024 22.528 12.288 21.504 25.6s-13.312 23.552-25.6 21.504l-102.4-10.24c-4.096 0-8.192-2.048-11.264-5.12 0 0-1.024 0-1.024 0-2.048-2.048-3.072-3.072-4.096-5.12-1.024-1.024-1.024-1.024-2.048-2.048 0 0 0-1.024-1.024-2.048 0-1.024 0-2.048-1.024-3.072-1.024-4.096-1.024-9.216 0-13.312l9.216-96.256c1.024-12.288 11.264-21.504 23.552-21.504 1.024 0 2.048 0 2.048 0 13.312 1.024 23.552 12.288 21.504 25.6l-4.096 48.128c89.088-75.776 125.952-195.584 99.328-308.224-55.296 35.84-111.616 67.584-152.576 90.112-5.12 29.696-19.456 56.32-39.936 76.8-1.024 129.024-8.192 397.312-63.488 452.608-13.312 13.312-27.648 16.384-37.888 16.384-9.216 0-23.552-3.072-37.888-16.384-26.624-27.648-43.008-108.544-51.2-199.68-93.184-21.504-174.080-78.848-224.256-161.792-53.248-90.112-63.488-194.56-34.816-287.744-81.92-54.272-153.6-112.64-165.888-152.576-5.12-18.432 0-32.768 4.096-40.96 5.12-8.192 14.336-19.456 32.768-25.6 6.144-1.024 13.312-2.048 20.48-2.048 47.104 0 124.928 28.672 204.8 64.512 18.432-17.408 37.888-32.768 60.416-46.080 57.344-34.816 120.832-51.2 184.32-51.2 91.136 0 180.224 34.816 247.808 99.328 79.872-36.864 159.744-66.56 207.872-66.56 7.168 0 14.336 1.024 20.48 2.048 18.432 6.144 27.648 17.408 32.768 25.6s9.216 22.528 4.096 40.96zM495.616 559.872c2.048 14.336 3.072 28.672 4.096 43.008 5.12 46.080 10.24 84.992 17.408 110.592 15.36-62.464 25.6-199.68 28.672-331.776-10.24 1.024-19.456 2.048-28.672 2.048-10.24 0-19.456-1.024-28.672-2.048 0 60.416 3.072 122.88 7.168 178.176zM517.12 313.088c38.912 0 71.68-32.768 71.68-72.704 0-38.912-32.768-71.68-71.68-71.68-39.936 0-72.704 32.768-72.704 71.68 0 39.936 32.768 72.704 72.704 72.704zM243.712 409.344c40.96 66.56 105.472 115.712 179.2 137.216-5.12-75.776-7.168-151.552-7.168-203.776-18.432-18.432-32.768-43.008-38.912-70.656-43.008-23.552-105.472-59.392-167.936-98.304-19.456 76.8-9.216 161.792 34.816 235.52zM259.072 67.328c-15.36-7.168-29.696-14.336-44.032-20.48-49.152-21.504-93.184-38.912-122.88-46.080 22.528 20.48 59.392 47.104 103.424 77.824 13.312 8.192 26.624 17.408 39.936 25.6 46.080 29.696 96.256 60.416 146.432 89.088 6.144-18.432 16.384-35.84 29.696-49.152-50.176-27.648-103.424-54.272-152.576-76.8zM349.184-15.616c-13.312 8.192-26.624 17.408-37.888 27.648 65.536 31.744 128 64.512 168.96 87.040 1.024 1.024 1.024 2.048 2.048 3.072 11.264-3.072 22.528-5.12 33.792-5.12 9.216 0 18.432 1.024 27.648 3.072 0 0 0 0 0-1.024 39.936-21.504 101.376-54.272 165.888-86.016-99.328-82.944-243.712-99.328-360.448-28.672zM803.84 48.896c-14.336 6.144-28.672 13.312-43.008 20.48-46.080 21.504-95.232 46.080-142.336 70.656 13.312 14.336 24.576 30.72 31.744 49.152 45.056-26.624 91.136-54.272 134.144-81.92 13.312-8.192 26.624-17.408 39.936-25.6 46.080-31.744 84.992-60.416 107.52-80.896-30.72 7.168-75.776 25.6-128 48.128z" />
<glyph unicode="&#xe80c;" glyph-name="word-document" d="M337.92 382.72l57.344-234.496 65.536 234.496h100.352l65.536-234.496 61.44 234.496h90.112l-106.496-311.296h-99.328l-63.488 230.4-65.536-230.4h-100.352l-102.4 311.296h97.28zM947.2 572.16l-273.408 280.576c-7.168 7.168-17.408 11.264-27.648 11.264h-490.496c-49.152 0-90.112-39.936-90.112-90.112v-843.776c0-50.176 40.96-90.112 90.112-90.112h712.704c49.152 0 90.112 39.936 90.112 90.112v614.4c0 10.24-4.096 20.48-11.264 27.648zM835.584 576.256h-182.272v187.392l182.272-187.392zM868.352-83.2h-712.704c-7.168 0-12.288 6.144-12.288 13.312v843.776c0 7.168 5.12 13.312 12.288 13.312h445.44v-236.544c0-14.336 12.288-26.624 25.6-26.624h253.952v-593.92c0-7.168-5.12-13.312-12.288-13.312z" />
<glyph unicode="&#xe80d;" glyph-name="attach-file" d="M227.328-119.040c-59.392 0-115.712 22.528-158.72 63.488-45.056 45.056-68.608 102.4-68.608 162.816 0 61.44 23.552 118.784 66.56 160.768l207.872 208.896c1.024 1.024 2.048 2.048 3.072 3.072l261.12 260.096c53.248 53.248 124.928 82.944 200.704 82.944s147.456-29.696 201.728-82.944c53.248-54.272 82.944-125.952 82.944-201.728s-29.696-147.456-82.944-200.704l-361.472-361.472c-13.312-13.312-35.84-13.312-50.176 0-14.336 14.336-14.336 36.864 0 51.2l360.448 360.448c40.96 39.936 62.464 94.208 62.464 150.528 0 57.344-21.504 110.592-62.464 151.552-39.936 39.936-93.184 61.44-150.528 61.44s-110.592-21.504-150.528-62.464l-262.144-262.144c-1.024-1.024-2.048-2.048-3.072-2.048l-206.848-206.848c-28.672-29.696-45.056-68.608-45.056-109.568 0-41.984 16.384-80.896 45.056-110.592 30.72-29.696 69.632-45.056 110.592-45.056s80.896 16.384 109.568 45.056l206.848 206.848c1.024 1.024 2.048 2.048 2.048 2.048l224.256 224.256c16.384 17.408 26.624 39.936 26.624 63.488s-10.24 46.080-26.624 62.464c-33.792 34.816-93.184 33.792-125.952 1.024l-322.56-322.56c-14.336-14.336-36.864-14.336-51.2 0-13.312 13.312-13.312 35.84 0 50.176l322.56 322.56c29.696 29.696 70.656 47.104 113.664 47.104s83.968-16.384 113.664-47.104c30.72-29.696 47.104-71.68 47.104-113.664 0-43.008-16.384-82.944-47.104-113.664l-222.208-223.232c-1.024 0-1.024-1.024-2.048-2.048l-208.896-207.872c-41.984-41.984-100.352-66.56-159.744-66.56z" />
<glyph unicode="&#xe80e;" glyph-name="youtube" d="M1017.856 566.016c0 90.112-66.56 162.816-148.48 162.816-110.592 5.12-224.256 7.168-338.944 7.168-6.144 0-12.288 0-18.432 0s-12.288 0-17.408 0c-115.712 0-229.376-2.048-339.968-7.168-80.896 0-147.456-72.704-147.456-162.816-5.12-70.656-7.168-142.336-7.168-214.016 0-70.656 2.048-142.336 7.168-212.992 0-90.112 65.536-163.84 147.456-163.84 116.736-5.12 235.52-7.168 357.376-7.168s240.64 2.048 357.376 7.168c81.92 0 147.456 73.728 147.456 163.84 5.12 70.656 7.168 142.336 7.168 214.016 0 70.656-2.048 142.336-6.144 212.992zM413.696 156.416v393.216l290.816-196.608-290.816-196.608z" />
<glyph unicode="&#xe80f;" glyph-name="zoom-in" d="M743.424 397.056c0-19.456-16.384-35.84-35.84-35.84h-202.752v-201.728c0-20.48-16.384-35.84-35.84-35.84s-35.84 15.36-35.84 35.84v201.728h-203.776c-19.456 0-35.84 16.384-35.84 35.84s16.384 35.84 35.84 35.84h203.776v202.752c0 19.456 15.36 35.84 35.84 35.84s35.84-16.384 35.84-35.84v-202.752h202.752c19.456 0 35.84-16.384 35.84-35.84zM1013.76-149.76c-7.168-7.168-16.384-10.24-25.6-10.24s-18.432 3.072-25.6 10.24l-190.464 191.488c-81.92-69.632-187.392-111.616-303.104-111.616-259.072 0-468.992 209.92-468.992 466.944s209.92 466.944 468.992 466.944 467.968-209.92 467.968-466.944c0-116.736-43.008-222.208-113.664-304.128l190.464-192.512c13.312-13.312 13.312-35.84 0-50.176zM468.992 1.792c218.112 0 396.288 177.152 396.288 395.264s-178.176 395.264-396.288 395.264-397.312-177.152-397.312-395.264 178.176-395.264 397.312-395.264z" />
<glyph unicode="&#xe810;" glyph-name="centrifuge" d="M926.72 337.664c0-165.888-98.304-313.344-251.904-377.856-4.096-2.048-9.216-3.072-13.312-3.072-14.336 0-27.648 9.216-33.792 22.528-7.168 18.432 1.024 39.936 19.456 47.104 125.952 53.248 206.848 175.104 206.848 311.296 0 158.72-109.568 290.816-256 326.656l64.512-87.040c12.288-16.384 8.192-38.912-7.168-51.2-7.168-4.096-14.336-7.168-21.504-7.168-11.264 0-22.528 5.12-29.696 15.36l-111.616 150.528c-1.024 1.024-2.048 3.072-3.072 5.12h-1.024c0 0 0 1.024 0 1.024-2.048 3.072-4.096 6.144-5.12 10.24 0 2.048-1.024 4.096-1.024 5.12 0 2.048-1.024 3.072-1.024 4.096s1.024 2.048 1.024 3.072c0 3.072 1.024 6.144 2.048 9.216 0 1.024 0 2.048 1.024 3.072 2.048 5.12 5.12 11.264 10.24 15.36l156.672 115.712c16.384 12.288 38.912 8.192 51.2-7.168 11.264-16.384 8.192-38.912-8.192-51.2l-84.992-62.464c181.248-41.984 316.416-204.8 316.416-398.336zM541.696-2.304c0 2.048 0 3.072-1.024 5.12-1.024 4.096-3.072 7.168-5.12 11.264 0 0 0 0 0 0l-1.024 1.024c-1.024 1.024-2.048 3.072-3.072 4.096l-111.616 151.552c-12.288 15.36-34.816 19.456-51.2 7.168-15.36-12.288-19.456-34.816-7.168-51.2l64.512-87.040c-146.432 35.84-256 168.96-256 326.656 0 136.192 80.896 258.048 206.848 311.296 18.432 7.168 26.624 28.672 19.456 47.104-8.192 18.432-28.672 26.624-47.104 19.456-153.6-63.488-251.904-211.968-251.904-377.856 0-193.536 135.168-355.328 316.416-398.336l-84.992-62.464c-16.384-12.288-19.456-34.816-8.192-51.2 7.168-9.216 18.432-14.336 29.696-14.336 7.168 0 14.336 2.048 21.504 7.168l156.672 115.712c5.12 4.096 8.192 10.24 11.264 15.36 0 1.024 0 2.048 0 3.072 1.024 3.072 2.048 6.144 2.048 9.216 0 1.024 1.024 2.048 1.024 3.072s-1.024 2.048-1.024 4.096z" />
<glyph unicode="&#xe811;" glyph-name="cloud" d="M798.72-17.664h-516.096c-75.776 0-146.432 29.696-199.68 82.944-1.024 1.024-2.048 2.048-3.072 2.048-51.2 53.248-79.872 122.88-79.872 197.632 0 71.68 27.648 140.288 76.8 193.536 38.912 40.96 90.112 69.632 145.408 81.92 27.648 48.128 67.584 90.112 114.688 121.856 59.392 38.912 128 59.392 198.656 59.392 96.256 0 187.392-37.888 254.976-106.496 55.296-54.272 90.112-124.928 101.376-200.704 30.72-14.336 57.344-34.816 78.848-60.416 34.816-40.96 53.248-92.16 53.248-145.408 0-60.416-23.552-116.736-66.56-159.744 0-1.024-1.024-1.024-2.048-2.048-41.984-40.96-97.28-64.512-155.648-64.512 0 0-1.024 0-1.024 0zM135.168 113.408c39.936-37.888 92.16-59.392 147.456-59.392h516.096c40.96 0 79.872 16.384 108.544 45.056 0 1.024 1.024 1.024 1.024 1.024 28.672 29.696 44.032 67.584 44.032 108.544 0 35.84-12.288 71.68-35.84 99.328-18.432 21.504-41.984 37.888-68.608 47.104-13.312 4.096-22.528 16.384-23.552 30.72-6.144 67.584-35.84 131.072-83.968 179.2-55.296 55.296-128 84.992-204.8 84.992-57.344 0-111.616-16.384-159.744-48.128-41.984-27.648-75.776-65.536-98.304-109.568-5.12-10.24-15.36-17.408-26.624-19.456-46.080-7.168-90.112-29.696-121.856-63.488-36.864-38.912-57.344-91.136-57.344-144.384 0-56.32 21.504-109.568 61.44-149.504 1.024 0 1.024-1.024 2.048-2.048z" />
<glyph unicode="&#xe812;" glyph-name="contact" d="M717.824-160c-23.552 0-48.128 2.048-71.68 5.12-251.904 33.792-491.52 228.352-598.016 485.376-59.392 141.312-63.488 288.768-13.312 405.504 27.648 63.488 90.112 128 156.672 128 23.552 0 59.392-8.192 91.136-49.152l105.472-136.192c34.816-45.056 65.536-93.184 58.368-144.384-4.096-30.72-20.48-56.32-49.152-77.824-11.264-10.24-26.624-20.48-41.984-30.72-7.168-5.12-13.312-10.24-20.48-14.336 1.024-4.096 8.192-19.456 41.984-59.392l8.192-9.216c74.752-92.16 159.744-165.888 189.44-165.888l6.144 11.264c30.72 43.008 72.704 102.4 138.24 102.4 20.48 0 41.984-7.168 62.464-19.456 34.816-20.48 65.536-46.080 96.256-71.68 13.312-11.264 26.624-21.504 39.936-32.768 5.12-4.096 11.264-8.192 16.384-12.288 41.984-31.744 106.496-78.848 86.016-161.792-12.288-50.176-57.344-92.16-135.168-121.856-51.2-20.48-107.52-30.72-166.912-30.72zM353.28 604.928c-8.192 12.288-16.384 22.528-21.504 29.696l-106.496 136.192c-16.384 21.504-29.696 21.504-33.792 21.504-32.768 0-72.704-44.032-91.136-84.992-43.008-98.304-37.888-226.304 13.312-350.208 95.232-229.376 318.464-411.648 541.696-441.344 72.704-10.24 143.36-3.072 203.776 20.48 52.224 21.504 84.992 47.104 92.16 73.728 7.168 32.768-13.312 53.248-59.392 87.040-6.144 5.12-12.288 9.216-18.432 13.312-13.312 11.264-27.648 22.528-41.984 33.792-27.648 23.552-57.344 48.128-87.040 65.536-9.216 6.144-18.432 9.216-25.6 9.216-28.672 0-57.344-39.936-79.872-72.704l-10.24-13.312c-12.288-17.408-32.768-27.648-54.272-27.648-78.848 0-197.632 134.144-244.736 191.488l-7.168 8.192c-23.552 27.648-62.464 72.704-57.344 117.76 2.048 18.432 11.264 34.816 27.648 46.080 7.168 5.12 14.336 10.24 22.528 15.36 12.288 9.216 25.6 17.408 37.888 27.648 20.48 16.384 22.528 27.648 22.528 31.744 1.024 1.024 1.024 3.072 1.024 5.12 6.144 19.456-23.552 56.32-23.552 56.32z" />
<glyph unicode="&#xe813;" glyph-name="cross" d="M562.176 352l451.584 450.56c13.312 14.336 13.312 36.864 0 51.2s-36.864 13.312-51.2 0l-450.56-451.584-450.56 451.584c-14.336 14.336-36.864 14.336-51.2 0s-13.312-36.864 0-50.176l451.584-451.584-451.584-451.584c-14.336-13.312-14.336-35.84 0-50.176 7.168-7.168 16.384-10.24 25.6-10.24s18.432 3.072 25.6 10.24l450.56 451.584 451.584-451.584c6.144-7.168 15.36-10.24 24.576-10.24s18.432 3.072 25.6 10.24c13.312 14.336 13.312 36.864 0 51.2l-451.584 450.56z" />
<glyph unicode="&#xe814;" glyph-name="crusher" d="M249.856 318.208c-132.096 0-238.592-107.52-238.592-238.592s106.496-239.616 238.592-239.616 239.616 107.52 239.616 239.616-107.52 238.592-239.616 238.592zM249.856-85.248c-90.112 0-163.84 73.728-163.84 164.864s73.728 163.84 163.84 163.84 163.84-73.728 163.84-163.84-73.728-164.864-163.84-164.864zM249.856 176.896c-54.272 0-98.304-44.032-98.304-97.28s44.032-98.304 98.304-98.304 98.304 44.032 98.304 98.304-44.032 97.28-98.304 97.28zM249.856 56.064c-12.288 0-22.528 10.24-22.528 23.552 0 12.288 10.24 22.528 22.528 22.528s23.552-10.24 23.552-22.528c0-13.312-11.264-23.552-23.552-23.552zM774.144 318.208c-132.096 0-238.592-107.52-238.592-238.592s106.496-239.616 238.592-239.616 238.592 107.52 238.592 239.616-106.496 238.592-238.592 238.592zM774.144-85.248c-90.112 0-163.84 73.728-163.84 164.864s73.728 163.84 163.84 163.84 163.84-73.728 163.84-163.84-73.728-164.864-163.84-164.864zM774.144 176.896c-54.272 0-98.304-44.032-98.304-97.28s44.032-98.304 98.304-98.304 98.304 44.032 98.304 98.304-44.032 97.28-98.304 97.28zM774.144 56.064c-12.288 0-22.528 10.24-22.528 23.552 0 12.288 10.24 22.528 22.528 22.528s23.552-10.24 23.552-22.528c0-13.312-11.264-23.552-23.552-23.552zM537.6 284.416c-6.144-7.168-16.384-11.264-25.6-11.264-11.264-2.048-19.456 4.096-26.624 11.264l-174.080 176.128c-14.336 15.36-14.336 38.912 0 53.248 15.36 14.336 38.912 14.336 53.248 0l109.568-111.616v423.936c0 21.504 17.408 37.888 37.888 37.888s37.888-16.384 37.888-37.888v-424.96l113.664 112.64c15.36 14.336 38.912 14.336 53.248 0 14.336-15.36 14.336-38.912 0-53.248l-179.2-176.128z" />
<glyph unicode="&#xe815;" glyph-name="googleplus" d="M480.256 306.944l-41.984 31.744c-13.312 10.24-22.528 19.456-22.528 33.792 0 16.384 11.264 26.624 24.576 39.936l1.024 1.024c46.080 34.816 102.4 77.824 102.4 169.984 0 61.44-26.624 102.4-53.248 132.096h29.696l138.24 75.776h-305.152c-58.368 0-143.36-7.168-216.064-65.536v-1.024c-50.176-40.96-79.872-101.376-79.872-160.768 0-49.152 19.456-97.28 54.272-131.072 49.152-50.176 110.592-60.416 153.6-60.416 3.072 0 7.168 0 10.24 0-2.048-6.144-3.072-14.336-3.072-23.552 0-24.576 8.192-44.032 18.432-59.392-54.272-4.096-132.096-14.336-193.536-51.2-90.112-51.2-97.28-128-97.28-149.504 0-87.040 81.92-176.128 264.192-176.128 208.896 0 318.464 113.664 318.464 226.304 0 84.992-52.224 126.976-102.4 167.936zM193.536 617.216c0 30.72 7.168 54.272 21.504 70.656 14.336 18.432 41.984 30.72 66.56 30.72 45.056 0 74.752-34.816 92.16-63.488 20.48-35.84 33.792-82.944 33.792-122.88 0-11.264 0-45.056-23.552-67.584-15.36-15.36-41.984-26.624-65.536-26.624-46.080 0-75.776 33.792-92.16 62.464-24.576 39.936-32.768 87.040-32.768 116.736zM470.016 96c0-62.464-57.344-101.376-149.504-101.376-110.592 0-184.32 47.104-184.32 116.736 0 60.416 49.152 83.968 87.040 97.28 43.008 14.336 101.376 16.384 114.688 16.384 8.192 0 13.312 0 19.456 0 83.968-57.344 112.64-82.944 112.64-129.024zM1024 613.12v-77.824h-178.176v-185.344h-77.824v185.344h-182.272v77.824h182.272v178.176h77.824v-178.176h178.176z" />
<glyph unicode="&#xe816;" glyph-name="grid-view" d="M273.408 30.464h-237.568c-19.456 0-35.84 16.384-35.84 35.84s16.384 35.84 35.84 35.84h237.568c20.48 0 35.84-16.384 35.84-35.84s-15.36-35.84-35.84-35.84zM309.248 352c0 19.456-15.36 35.84-35.84 35.84h-237.568c-19.456 0-35.84-16.384-35.84-35.84s16.384-35.84 35.84-35.84h237.568c20.48 0 35.84 16.384 35.84 35.84zM309.248 637.696c0 19.456-15.36 35.84-35.84 35.84h-237.568c-19.456 0-35.84-16.384-35.84-35.84s16.384-35.84 35.84-35.84h237.568c20.48 0 35.84 16.384 35.84 35.84zM666.624 66.304c0 19.456-15.36 35.84-35.84 35.84h-237.568c-19.456 0-35.84-16.384-35.84-35.84s15.36-35.84 35.84-35.84h237.568c20.48 0 35.84 16.384 35.84 35.84zM666.624 352c0 19.456-15.36 35.84-35.84 35.84h-237.568c-19.456 0-35.84-16.384-35.84-35.84s15.36-35.84 35.84-35.84h237.568c20.48 0 35.84 16.384 35.84 35.84zM666.624 637.696c0 19.456-15.36 35.84-35.84 35.84h-237.568c-19.456 0-35.84-16.384-35.84-35.84s15.36-35.84 35.84-35.84h237.568c20.48 0 35.84 16.384 35.84 35.84zM1024 66.304c0 19.456-16.384 35.84-35.84 35.84h-237.568c-20.48 0-35.84-16.384-35.84-35.84s15.36-35.84 35.84-35.84h237.568c19.456 0 35.84 16.384 35.84 35.84zM1024 352c0 19.456-16.384 35.84-35.84 35.84h-237.568c-20.48 0-35.84-16.384-35.84-35.84s15.36-35.84 35.84-35.84h237.568c19.456 0 35.84 16.384 35.84 35.84zM1024 637.696c0 19.456-16.384 35.84-35.84 35.84h-237.568c-20.48 0-35.84-16.384-35.84-35.84s15.36-35.84 35.84-35.84h237.568c19.456 0 35.84 16.384 35.84 35.84z" />
<glyph unicode="&#xe817;" glyph-name="headphones" d="M988.16 249.6h-66.56v211.968c0 106.496-43.008 207.872-120.832 283.648-76.8 76.8-179.2 118.784-288.768 118.784-107.52 0-207.872-39.936-286.72-115.712l-2.048-3.072c-77.824-75.776-120.832-176.128-120.832-283.648v-211.968h-66.56c-19.456 0-35.84-16.384-35.84-35.84v-337.92c0-19.456 16.384-35.84 35.84-35.84h205.824c20.48 0 36.864 16.384 36.864 35.84v337.92c0 19.456-16.384 34.816-36.864 34.816h-66.56v212.992c0 88.064 35.84 171.008 100.352 234.496l2.048 3.072c63.488 60.416 146.432 93.184 234.496 93.184 90.112 0 174.080-33.792 237.568-97.28 63.488-62.464 99.328-145.408 99.328-233.472v-211.968h-66.56c-20.48 0-36.864-16.384-36.864-35.84v-337.92c0-19.456 16.384-35.84 36.864-35.84h205.824c19.456 0 35.84 16.384 35.84 35.84v337.92c0 19.456-16.384 35.84-35.84 35.84zM205.824-88.32h-133.12v266.24h133.12v-266.24zM951.296-88.32h-133.12v266.24h133.12v-266.24z" />
<glyph unicode="&#xe818;" glyph-name="home" d="M831.488-140.544h-636.928c-20.48 0-36.864 16.384-36.864 36.864v373.76c0 20.48 16.384 36.864 36.864 36.864s36.864-16.384 36.864-36.864v-336.896h563.2v336.896c0 20.48 16.384 36.864 36.864 36.864s36.864-16.384 36.864-36.864v-373.76c0-20.48-16.384-36.864-36.864-36.864zM1012.736 306.944c15.36 14.336 15.36 37.888 0 52.224l-474.112 475.136c-15.36 14.336-37.888 14.336-53.248 0l-474.112-475.136c-15.36-14.336-15.36-37.888 0-52.224s37.888-14.336 52.224 0l448.512 448.512 448.512-448.512c7.168-7.168 17.408-11.264 26.624-11.264s18.432 4.096 25.6 11.264z" />
<glyph unicode="&#xe819;" glyph-name="hose" d="M1006.592 705.28c-11.264 6.144-25.6 6.144-35.84 0l-101.376-59.392-101.376 59.392c-11.264 6.144-24.576 6.144-35.84 0l-100.352-59.392-101.376 59.392c-11.264 6.144-24.576 6.144-35.84 0l-101.376-59.392-101.376 59.392c-10.24 6.144-24.576 6.144-35.84 0l-101.376-59.392-101.376 59.392c-10.24 6.144-24.576 6.144-34.816 0-11.264-6.144-18.432-18.432-18.432-30.72v-632.832c0-12.288 7.168-24.576 18.432-30.72 10.24-6.144 24.576-6.144 35.84 0l87.040 51.2c3.072-1.024 6.144-2.048 10.24-2.048 5.12 0 10.24 1.024 14.336 3.072l90.112-52.224c11.264-6.144 24.576-6.144 35.84 0l84.992 50.176c1.024 0 3.072-1.024 4.096-1.024 7.168 0 13.312 3.072 18.432 6.144l94.208-55.296c11.264-6.144 24.576-6.144 35.84 0l90.112 52.224c4.096-2.048 9.216-3.072 14.336-3.072 4.096 0 7.168 1.024 10.24 2.048l88.064-51.2c11.264-6.144 24.576-6.144 35.84 0l88.064 52.224c4.096-2.048 8.192-3.072 13.312-3.072 4.096 0 8.192 1.024 12.288 3.072l71.68-43.008c4.096-15.36 18.432-26.624 34.816-26.624 19.456 0 35.84 16.384 35.84 35.84v11.264c0 1.024 0 1.024 0 2.048v631.808c0 12.288-7.168 24.576-17.408 30.72zM71.68 612.096l44.032-25.6v-456.704l-44.032-25.6v507.904zM273.408 83.712l-86.016 50.176v448.512l87.040 50.176 70.656-40.96v-466.944l-71.68-40.96zM512 83.712l-95.232 55.296v437.248l95.232 56.32 86.016-50.176v-448.512l-86.016-50.176zM749.568 83.712l-79.872 47.104v454.656l80.896 47.104 82.944-48.128v-452.608l-83.968-48.128zM952.32 104.192l-47.104 27.648v452.608l47.104 27.648v-507.904z" />
<glyph unicode="&#xe81a;" glyph-name="hydro" d="M512 247.552c-35.84 0-68.608 14.336-94.208 38.912-51.2 52.224-51.2 136.192 0 187.392 50.176 50.176 137.216 50.176 187.392 0 52.224-51.2 52.224-135.168 0-187.392-24.576-24.576-58.368-38.912-93.184-38.912zM512 440.064c-16.384 0-31.744-6.144-43.008-17.408-23.552-23.552-23.552-61.44 0-84.992 22.528-22.528 62.464-22.528 84.992 0 23.552 23.552 23.552 61.44 0 84.992-11.264 11.264-26.624 17.408-41.984 17.408zM902.144-111.872c-22.528 0-33.792 10.24-48.128 23.552-18.432 17.408-39.936 37.888-81.92 37.888s-64.512-20.48-81.92-37.888c-14.336-13.312-25.6-23.552-48.128-23.552s-33.792 10.24-49.152 23.552c-17.408 17.408-38.912 37.888-80.896 37.888-43.008 0-64.512-20.48-81.92-37.888-15.36-13.312-25.6-23.552-49.152-23.552-22.528 0-32.768 9.216-48.128 23.552-17.408 17.408-39.936 37.888-81.92 37.888s-63.488-20.48-80.896-37.888c-15.36-14.336-25.6-23.552-49.152-23.552-13.312 0-23.552-11.264-23.552-24.576s10.24-23.552 23.552-23.552c41.984 0 64.512 20.48 81.92 36.864 14.336 14.336 25.6 24.576 48.128 24.576s33.792-10.24 49.152-24.576c17.408-16.384 38.912-36.864 80.896-36.864 43.008 0 64.512 20.48 81.92 36.864 15.36 14.336 25.6 24.576 49.152 24.576s32.768-10.24 48.128-24.576c17.408-16.384 39.936-36.864 81.92-36.864s63.488 20.48 80.896 36.864c15.36 14.336 25.6 24.576 49.152 24.576 22.528 0 33.792-10.24 48.128-24.576 18.432-16.384 39.936-36.864 81.92-36.864 13.312 0 24.576 10.24 24.576 23.552 0 14.336-11.264 24.576-24.576 24.576zM994.304 390.912c-4.096 52.224-45.056 136.192-171.008 136.192h-49.152c-8.192 13.312-16.384 26.624-25.6 38.912l105.472 105.472c6.144 6.144 10.24 15.36 10.24 25.6 0 9.216-4.096 18.432-11.264 25.6-4.096 4.096-41.984 39.936-100.352 39.936-44.032 0-84.992-19.456-123.904-58.368l-34.816-34.816c-15.36 4.096-30.72 8.192-46.080 9.216v149.504c0 9.216-4.096 18.432-11.264 25.6-6.144 7.168-16.384 10.24-25.6 10.24-50.176-1.024-145.408-36.864-145.408-172.032v-49.152c-14.336-8.192-27.648-16.384-39.936-25.6l-105.472 105.472c-6.144 6.144-15.36 10.24-24.576 10.24-8.192-1.024-19.456-4.096-26.624-11.264-34.816-35.84-76.8-129.024 18.432-224.256l34.816-34.816c-4.096-15.36-7.168-30.72-9.216-46.080h-149.504c-9.216 0-18.432-4.096-25.6-11.264-6.144-6.144-10.24-15.36-10.24-25.6 1.024-50.176 37.888-145.408 172.032-145.408h49.152c8.192-14.336 16.384-27.648 25.6-39.936l-104.448-104.448c-7.168-7.168-11.264-16.384-11.264-26.624 0-4.096 1.024-9.216 3.072-13.312 0 0 0 0 0 0-16.384-14.336-23.552-20.48-40.96-20.48-19.456 0-35.84-16.384-35.84-35.84s16.384-36.864 35.84-36.864c47.104 0 71.68 23.552 90.112 40.96 15.36 14.336 22.528 20.48 40.96 20.48 17.408 0 24.576-6.144 39.936-20.48 18.432-17.408 43.008-40.96 90.112-40.96 46.080 0 71.68 23.552 89.088 40.96 16.384 14.336 23.552 20.48 40.96 20.48s24.576-6.144 39.936-20.48c18.432-17.408 43.008-40.96 90.112-40.96s71.68 23.552 90.112 40.96c15.36 14.336 22.528 20.48 39.936 20.48s24.576-6.144 39.936-20.48c18.432-17.408 43.008-40.96 90.112-40.96 20.48 0 36.864 16.384 36.864 36.864s-16.384 35.84-36.864 35.84c-16.384 0-24.576 6.144-38.912 19.456 31.744 41.984 59.392 126.976-27.648 214.016l-34.816 34.816c5.12 15.36 8.192 30.72 10.24 46.080h148.48c0 0 1.024 0 1.024 0 19.456 0 35.84 16.384 35.84 36.864 0 3.072-1.024 7.168-2.048 10.24zM380.928 29.44c-6.144 0-10.24 1.024-15.36 3.072 10.24 7.168 20.48 15.36 29.696 24.576l33.792 33.792c14.336-4.096 27.648-6.144 40.96-8.192-21.504-8.192-36.864-21.504-48.128-32.768-15.36-14.336-22.528-20.48-40.96-20.48zM681.984 49.92c-11.264-10.24-18.432-16.384-27.648-18.432 2.048 11.264 3.072 23.552 3.072 36.864v49.152c14.336 8.192 27.648 16.384 39.936 25.6l55.296-55.296c-33.792-5.12-55.296-23.552-70.656-37.888zM776.192 416.512c-19.456 0-35.84-16.384-35.84-35.84 0-26.624-5.12-53.248-14.336-79.872-5.12-13.312-2.048-28.672 8.192-37.888l50.176-51.2c35.84-35.84 39.936-66.56 35.84-89.088l-95.232 96.256c-14.336 13.312-37.888 13.312-51.2 0-18.432-18.432-40.96-33.792-66.56-46.080-13.312-6.144-21.504-18.432-21.504-32.768v-71.68c0-1.024 0-3.072 0-4.096-10.24 8.192-22.528 15.36-37.888 20.48v30.72c0 19.456-16.384 35.84-35.84 35.84-26.624 0-53.248 5.12-79.872 15.36-4.096 1.024-8.192 2.048-12.288 2.048-9.216 0-18.432-4.096-25.6-10.24l-51.2-51.2c-13.312-13.312-27.648-22.528-40.96-28.672-9.216 4.096-19.456 7.168-31.744 9.216l79.872 79.872c13.312 14.336 13.312 36.864 0 51.2-18.432 18.432-33.792 39.936-46.080 66.56-6.144 12.288-18.432 20.48-32.768 20.48h-71.68c-51.2 0-75.776 19.456-88.064 37.888h135.168c19.456 0 35.84 16.384 35.84 36.864 0 25.6 5.12 52.224 15.36 78.848 4.096 13.312 1.024 28.672-9.216 37.888l-50.176 51.2c-35.84 35.84-39.936 66.56-34.816 89.088l95.232-95.232c13.312-14.336 36.864-14.336 51.2 0 17.408 18.432 39.936 32.768 66.56 45.056 12.288 6.144 20.48 18.432 20.48 32.768v71.68c0 51.2 19.456 75.776 37.888 88.064v-135.168c0-19.456 16.384-35.84 36.864-35.84 25.6 0 52.224-5.12 78.848-14.336 13.312-5.12 28.672-2.048 37.888 8.192l51.2 50.176c29.696 30.72 62.464 40.96 88.064 34.816l-94.208-94.208c-14.336-14.336-14.336-37.888 0-51.2 18.432-18.432 32.768-40.96 45.056-66.56 6.144-13.312 18.432-21.504 32.768-21.504h71.68c51.2 0 75.776-18.432 88.064-37.888h-135.168z" />
<glyph unicode="&#xe81b;" glyph-name="navicon" d="M988.16 30.464h-952.32c-19.456 0-35.84 16.384-35.84 35.84s16.384 35.84 35.84 35.84h952.32c19.456 0 35.84-16.384 35.84-35.84s-16.384-35.84-35.84-35.84zM1024 352c0 19.456-16.384 35.84-35.84 35.84h-952.32c-19.456 0-35.84-16.384-35.84-35.84s16.384-35.84 35.84-35.84h952.32c19.456 0 35.84 16.384 35.84 35.84zM1024 637.696c0 19.456-16.384 35.84-35.84 35.84h-952.32c-19.456 0-35.84-16.384-35.84-35.84s16.384-35.84 35.84-35.84h952.32c19.456 0 35.84 16.384 35.84 35.84z" />
<glyph unicode="&#xe81c;" glyph-name="network" d="M878.592 259.84c-13.312 0-25.6-2.048-37.888-5.12l-183.296 193.536c21.504 29.696 35.84 66.56 35.84 106.496 0 99.328-81.92 180.224-181.248 180.224s-180.224-80.896-180.224-180.224c0-40.96 13.312-76.8 34.816-107.52l-182.272-192.512c-12.288 3.072-25.6 5.12-38.912 5.12-79.872 0-145.408-64.512-145.408-145.408s65.536-145.408 145.408-145.408 145.408 65.536 145.408 145.408c0 40.96-16.384 76.8-43.008 103.424l172.032 182.272c17.408-11.264 35.84-18.432 56.32-22.528v-121.856c-62.464-16.384-109.568-72.704-109.568-141.312 0-79.872 65.536-145.408 145.408-145.408s145.408 65.536 145.408 145.408c0 68.608-47.104 124.928-109.568 141.312v121.856c20.48 4.096 38.912 12.288 56.32 22.528l172.032-181.248c-26.624-26.624-44.032-63.488-44.032-104.448 0-79.872 65.536-145.408 146.432-145.408s145.408 65.536 145.408 145.408-65.536 145.408-145.408 145.408zM145.408 40.704c-40.96 0-73.728 32.768-73.728 73.728s32.768 74.752 73.728 74.752 74.752-33.792 74.752-74.752c0-40.96-33.792-73.728-74.752-73.728zM512 663.296c60.416 0 109.568-49.152 109.568-108.544 0-60.416-49.152-109.568-109.568-109.568s-109.568 49.152-109.568 109.568c0 59.392 49.152 108.544 109.568 108.544zM586.752 114.432c0-40.96-33.792-73.728-74.752-73.728s-73.728 32.768-73.728 73.728c0 40.96 32.768 74.752 73.728 74.752s74.752-33.792 74.752-74.752zM878.592 40.704c-40.96 0-74.752 32.768-74.752 73.728s33.792 74.752 74.752 74.752c40.96 0 73.728-33.792 73.728-74.752s-32.768-73.728-73.728-73.728z" />
<glyph unicode="&#xe81d;" glyph-name="oil-and-gas" d="M931.84 315.136h-162.816l-4.096 37.888c0 0 0 1.024-1.024 2.048l-54.272 441.344c-3.072 17.408-17.408 30.72-35.84 30.72h-67.584c0 1.024 0 1.024 0 1.024 0 19.456-15.36 35.84-35.84 35.84h-116.736c-20.48 0-35.84-16.384-35.84-35.84 0 0 0 0 0-1.024h-67.584c-18.432 0-32.768-13.312-35.84-30.72l-54.272-440.32c-1.024-2.048-1.024-3.072-1.024-5.12l-4.096-35.84h-161.792c-20.48 0-35.84-16.384-35.84-35.84v-117.76c0-19.456 15.36-35.84 35.84-35.84h55.296v-153.6c0-20.48 15.36-35.84 35.84-35.84h116.736c19.456 0 35.84 15.36 35.84 35.84v153.6h80.896v-249.856c0-19.456 15.36-35.84 35.84-35.84h116.736c20.48 0 35.84 16.384 35.84 35.84v249.856h80.896v-153.6c0-20.48 16.384-35.84 35.84-35.84h117.76c19.456 0 35.84 15.36 35.84 35.84v153.6h55.296c19.456 0 35.84 16.384 35.84 35.84v117.76c-1.024 19.456-16.384 35.84-35.84 35.84zM326.656 315.136l2.048 17.408 147.456 122.88v-140.288h-149.504zM363.52 610.048l93.184-77.824-114.688-96.256 21.504 174.080zM681.984 435.968l-114.688 96.256 93.184 77.824 21.504-174.080zM547.84 455.424l147.456-122.88 2.048-17.408h-149.504v140.288zM650.24 694.016l-102.4-86.016v148.48h94.208l8.192-62.464zM476.16 756.48v-148.48l-102.4 86.016 8.192 62.464h94.208zM265.216 7.936h-46.080v117.76h46.080v-117.76zM535.552-88.32h-46.080v214.016h46.080v-214.016zM804.864 7.936h-46.080v117.76h46.080v-117.76zM896 197.376h-55.296c0 0 0 0 0 0h-117.76c0 0 0 0 0 0h-151.552c0 0 0 0-1.024 0h-116.736c0 0 0 0-1.024 0h-151.552c0 0 0 0 0 0h-117.76c0 0 0 0 0 0h-55.296v46.080h610.304c0 0 0 0 1.024 0h156.672v-46.080z" />
<glyph unicode="&#xe81e;" glyph-name="pdf" d="M526.336 499.456h-316.416v154.624h316.416v-154.624zM132.096 654.080h-132.096v-154.624h132.096v154.624zM1024 544.512v-614.4c0-50.176-39.936-90.112-90.112-90.112h-711.68c-49.152 0-90.112 39.936-90.112 90.112v843.776c0 50.176 40.96 90.112 90.112 90.112h490.496c10.24 0 20.48-4.096 27.648-11.264l272.384-280.576c7.168-7.168 11.264-17.408 11.264-27.648zM718.848 763.648v-187.392h182.272l-182.272 187.392zM947.2-69.888v593.92h-253.952c-14.336 0-25.6 12.288-25.6 26.624v236.544h-445.44c-7.168 0-13.312-6.144-13.312-13.312v-843.776c0-7.168 6.144-13.312 13.312-13.312h711.68c7.168 0 13.312 6.144 13.312 13.312z" />
<glyph unicode="&#xe81f;" glyph-name="play-video" d="M68.608-160c-6.144 0-13.312 2.048-19.456 5.12-11.264 7.168-19.456 20.48-19.456 33.792v473.088c0 2.048 0 5.12 1.024 7.168v465.92c0 13.312 7.168 26.624 19.456 33.792 11.264 7.168 26.624 7.168 37.888 0l886.784-473.088c12.288-7.168 19.456-19.456 19.456-33.792s-7.168-26.624-19.456-33.792l-886.784-473.088c-6.144-3.072-13.312-5.12-19.456-5.12zM106.496 344.832v-397.312l772.096 404.48-771.072 404.48v-404.48c0-2.048 0-5.12-1.024-7.168z" />
<glyph unicode="&#xe820;" glyph-name="plus" d="M988.16 387.84h-440.32v440.32c0 19.456-16.384 35.84-35.84 35.84s-35.84-16.384-35.84-35.84v-440.32h-440.32c-19.456 0-35.84-16.384-35.84-35.84s16.384-35.84 35.84-35.84h440.32v-440.32c0-19.456 16.384-35.84 35.84-35.84s35.84 16.384 35.84 35.84v440.32h440.32c19.456 0 35.84 16.384 35.84 35.84s-16.384 35.84-35.84 35.84z" />
<glyph unicode="&#xe821;" glyph-name="services" d="M1013.76 498.432c-9.216 10.24-22.528 13.312-35.84 10.24l-102.4-30.72-63.488 63.488 22.528 86.016 100.352 28.672c13.312 4.096 22.528 14.336 25.6 27.648 2.048 13.312-2.048 26.624-13.312 34.816-39.936 31.744-89.088 48.128-140.288 48.128-60.416 0-117.76-23.552-160.768-66.56-57.344-57.344-79.872-140.288-60.416-217.088l-54.272-55.296-117.76 117.76c4.096 12.288 10.24 28.672 16.384 52.224 8.192 29.696 66.56 29.696 71.68 30.72 15.36-1.024 28.672 7.168 34.816 20.48 6.144 14.336 3.072 29.696-7.168 39.936-36.864 36.864-77.824 55.296-122.88 55.296-58.368 0-102.4-30.72-115.712-41.984l-23.552-11.264-5.12 6.144c-7.168 6.144-16.384 10.24-25.6 10.24s-18.432-4.096-25.6-10.24l-101.376-102.4c-7.168-6.144-10.24-15.36-10.24-24.576 0-10.24 3.072-19.456 10.24-25.6l3.072-3.072-5.12-10.24-24.576-2.048c-8.192-1.024-16.384-4.096-21.504-10.24l-51.2-50.176c-14.336-14.336-14.336-36.864 0-51.2l122.88-122.88c7.168-6.144 16.384-10.24 25.6-10.24 10.24 0 19.456 4.096 25.6 11.264l52.224 56.32c2.048 3.072 5.12 6.144 6.144 10.24l11.264 26.624 8.192 3.072 116.736-116.736-146.432-146.432c-7.168-7.168-10.24-15.36-10.24-25.6 0-9.216 3.072-18.432 10.24-24.576l101.376-102.4c7.168-7.168 16.384-10.24 25.6-10.24s18.432 3.072 24.576 10.24l147.456 146.432 175.104-175.104c7.168-7.168 16.384-10.24 25.6-10.24s17.408 3.072 24.576 10.24l103.424 102.4c6.144 7.168 10.24 16.384 10.24 25.6s-4.096 18.432-10.24 25.6l-176.128 175.104 48.128 47.104c80.896-27.648 175.104-7.168 236.544 54.272 23.552 23.552 41.984 52.224 53.248 84.992 4.096 12.288 2.048 26.624-8.192 35.84zM295.936 459.52c-7.168 7.168-16.384 10.24-25.6 10.24-5.12 0-9.216-1.024-13.312-2.048l-44.032-18.432c-8.192-3.072-15.36-10.24-19.456-19.456l-14.336-34.816-21.504-23.552-71.68 71.68 16.384 16.384 32.768 2.048c12.288 1.024 23.552 9.216 28.672 21.504l23.552 51.2c6.144 11.264 4.096 24.576-3.072 34.816l52.224 52.224c11.264-9.216 26.624-12.288 38.912-5.12l50.176 23.552c3.072 1.024 5.12 3.072 8.192 5.12 0 0 29.696 25.6 67.584 27.648-18.432-13.312-32.768-31.744-39.936-55.296-11.264-40.96-18.432-55.296-19.456-57.344-5.12-6.144-7.168-14.336-7.168-21.504 0-10.24 3.072-18.432 10.24-25.6l136.192-135.168-52.224-52.224-133.12 134.144zM784.384 75.52l-52.224-52.224-150.528 150.528 52.224 51.2 150.528-149.504zM739.328 398.080c-14.336 6.144-30.72 4.096-40.96-7.168l-64.512-64.512-51.2-50.176-51.2-52.224-51.2-50.176-120.832-121.856-51.2 51.2 120.832 121.856 152.576 152.576 70.656 69.632c9.216 10.24 12.288 24.576 8.192 37.888-21.504 57.344-7.168 121.856 35.84 164.864 30.72 30.72 72.704 46.080 115.712 46.080l-17.408-5.12c-12.288-4.096-21.504-13.312-24.576-25.6l-32.768-125.952c-3.072-12.288 1.024-24.576 10.24-33.792l93.184-93.184c9.216-9.216 22.528-13.312 34.816-9.216l19.456 5.12c-45.056-29.696-106.496-34.816-155.648-10.24z" />
<glyph unicode="&#xe822;" glyph-name="share" d="M808.96 186.112c-55.296 0-103.424-25.6-135.168-65.536l-228.352 122.88c19.456 31.744 30.72 68.608 30.72 108.544s-11.264 77.824-30.72 109.568l228.352 122.88c31.744-39.936 79.872-66.56 135.168-66.56 95.232 0 173.056 77.824 173.056 173.056s-77.824 173.056-173.056 173.056c-95.232 0-173.056-77.824-173.056-173.056 0-14.336 2.048-28.672 6.144-41.984l-243.712-131.072c-37.888 31.744-86.016 51.2-139.264 51.2-119.808 0-217.088-97.28-217.088-217.088s97.28-217.088 217.088-217.088c53.248 0 102.4 20.48 139.264 52.224l243.712-131.072c-4.096-13.312-6.144-27.648-6.144-43.008 0-95.232 77.824-173.056 173.056-173.056s173.056 77.824 173.056 173.056c0 95.232-77.824 173.056-173.056 173.056zM808.96 792.32c56.32 0 101.376-45.056 101.376-101.376s-45.056-101.376-101.376-101.376c-56.32 0-101.376 45.056-101.376 101.376s45.056 101.376 101.376 101.376zM259.072 206.592c-79.872 0-145.408 65.536-145.408 145.408s65.536 145.408 145.408 145.408 145.408-65.536 145.408-145.408-65.536-145.408-145.408-145.408zM808.96-88.32c-56.32 0-101.376 45.056-101.376 101.376s45.056 101.376 101.376 101.376c56.32 0 101.376-45.056 101.376-101.376s-45.056-101.376-101.376-101.376z" />
<glyph unicode="&#xe823;" glyph-name="shopping" d="M990.208 829.184h-109.568c-16.384 0-29.696-10.24-33.792-25.6l-49.152-185.344h-720.896c-10.24 0-20.48-4.096-26.624-11.264-6.144-8.192-9.216-18.432-7.168-28.672l53.248-317.44c2.048-16.384 16.384-28.672 33.792-28.672h564.224l-28.672-105.472h-559.104c-7.168 0-13.312-3.072-19.456-7.168-50.176-16.384-87.040-63.488-87.040-118.784 0-69.632 56.32-125.952 125.952-125.952s124.928 56.32 124.928 125.952c0 20.48-5.12 39.936-14.336 57.344h326.656c-9.216-17.408-14.336-36.864-14.336-57.344 0-69.632 56.32-125.952 125.952-125.952s124.928 56.32 124.928 125.952c0 48.128-27.648 90.112-67.584 110.592l63.488 234.496 61.44 229.376c0 0 0 0 0 0l49.152 185.344h83.968c18.432 0 33.792 15.36 33.792 33.792s-15.36 34.816-33.792 34.816zM712.704 300.8h-553.984l-41.984 249.856h662.528l-66.56-249.856zM182.272 0.768c0-31.744-25.6-57.344-56.32-57.344s-57.344 25.6-57.344 57.344c0 31.744 25.6 57.344 57.344 57.344s56.32-25.6 56.32-57.344zM674.816-56.576c-31.744 0-57.344 25.6-57.344 57.344s25.6 57.344 57.344 57.344 56.32-25.6 56.32-57.344c0-31.744-25.6-57.344-56.32-57.344z" />
<glyph unicode="&#xe824;" glyph-name="sort" d="M517.12 199.424c13.312-13.312 13.312-35.84-1.024-50.176l-230.4-228.352c-7.168-6.144-15.36-10.24-25.6-10.24 0 0 0 0 0 0s0 1.024-1.024 1.024c0 0 0-1.024-1.024-1.024-13.312 0-23.552 8.192-29.696 18.432l-218.112 220.16c-13.312 14.336-13.312 36.864 0 51.2 14.336 13.312 36.864 13.312 51.2-1.024l160.768-162.816v720.896c0 19.456 16.384 34.816 35.84 34.816s35.84-15.36 35.84-34.816v-727.040l172.032 169.984c14.336 13.312 36.864 13.312 51.2-1.024zM1013.76 554.752l-218.112 220.16c-6.144 10.24-16.384 18.432-29.696 18.432 0 0-1.024-1.024-1.024-1.024s-1.024 1.024-1.024 1.024c-7.168 0-18.432-4.096-25.6-11.264l-230.4-227.328c-14.336-14.336-14.336-36.864 0-50.176 13.312-14.336 35.84-14.336 50.176-1.024l172.032 169.984v-727.040c0-19.456 16.384-35.84 35.84-35.84s35.84 16.384 35.84 35.84v720.896l160.768-162.816c7.168-7.168 16.384-11.264 25.6-11.264s18.432 4.096 25.6 10.24c13.312 14.336 13.312 36.864 0 51.2z" />
<glyph unicode="&#xe825;" glyph-name="speech" d="M988.16-160c-3.072 0-6.144 0-9.216 1.024l-237.568 63.488c-71.68-36.864-152.576-56.32-233.472-56.32-279.552 0-507.904 227.328-507.904 507.904 0 279.552 228.352 507.904 507.904 507.904s508.928-228.352 508.928-507.904c0-80.896-20.48-161.792-57.344-233.472l63.488-237.568c3.072-12.288 0-25.6-9.216-34.816-7.168-6.144-16.384-10.24-25.6-10.24zM507.904 792.32c-240.64 0-436.224-195.584-436.224-436.224s195.584-437.248 436.224-437.248c73.728 0 147.456 19.456 211.968 55.296 8.192 4.096 17.408 6.144 26.624 3.072l191.488-51.2-51.2 191.488c-2.048 9.216-1.024 18.432 3.072 26.624 35.84 64.512 55.296 138.24 55.296 211.968 0 240.64-196.608 436.224-437.248 436.224z" />
<glyph unicode="&#xe826;" glyph-name="subscribe" d="M988.16-160h-952.32c-19.456 0-35.84 16.384-35.84 35.84v952.32c0 19.456 16.384 35.84 35.84 35.84h952.32c19.456 0 35.84-16.384 35.84-35.84v-952.32c0-19.456-16.384-35.84-35.84-35.84zM71.68-88.32h880.64v880.64h-880.64v-880.64zM430.080 113.408l414.72 415.744c14.336 14.336 14.336 36.864 0 50.176s-35.84 14.336-50.176 0l-390.144-390.144-175.104 175.104c-14.336 13.312-36.864 13.312-50.176 0-14.336-14.336-14.336-36.864 0-51.2l199.68-199.68c7.168-7.168 16.384-10.24 25.6-10.24s18.432 3.072 25.6 10.24z" />
<glyph unicode="&#xe827;" glyph-name="zoom-out" d="M709.632 361.216h-478.208c-19.456 0-35.84 16.384-35.84 35.84s16.384 35.84 35.84 35.84h478.208c19.456 0 35.84-16.384 35.84-35.84s-16.384-35.84-35.84-35.84zM1014.784-149.76c-6.144-7.168-15.36-10.24-24.576-10.24s-18.432 3.072-25.6 10.24l-190.464 191.488c-81.92-69.632-188.416-111.616-304.128-111.616-258.048 0-467.968 209.92-467.968 466.944s209.92 466.944 467.968 466.944 468.992-209.92 468.992-466.944c0-116.736-43.008-222.208-114.688-304.128l191.488-192.512c13.312-13.312 13.312-35.84-1.024-50.176zM470.016 1.792c219.136 0 397.312 177.152 397.312 395.264s-178.176 395.264-397.312 395.264c-218.112 0-396.288-177.152-396.288-395.264s178.176-395.264 396.288-395.264z" />
<glyph unicode="&#xe828;" glyph-name="cyclone" d="M765.952 793.344h-144.384v34.816c0 19.456-16.384 35.84-35.84 35.84h-222.208c-20.48 0-35.84-16.384-35.84-35.84v-34.816h-69.632c-10.24 0-19.456-4.096-26.624-12.288s-10.24-18.432-8.192-28.672l21.504-141.312c0 0 0 0 0-1.024l111.616-739.328c2.048-17.408 17.408-30.72 34.816-30.72h165.888c18.432 0 32.768 13.312 35.84 30.72l106.496 709.632h66.56c19.456 0 35.84 16.384 35.84 35.84v141.312c0 19.456-16.384 35.84-35.84 35.84zM541.696 11.008h-134.144l-63.488 418.816h260.096l-62.464-418.816zM421.888-88.32l-4.096 27.648h113.664l-5.12-27.648h-104.448zM615.424 501.504h-281.6l-12.288 78.848h305.152l-11.264-78.848zM730.112 652.032h-60.416c0 0 0 0-1.024 0h-358.4l-10.24 69.632h63.488c19.456 0 35.84 16.384 35.84 35.84v34.816h150.528v-34.816c0-19.456 15.36-35.84 35.84-35.84h144.384v-69.632z" />
<glyph unicode="&#xe829;" glyph-name="industrial" d="M322.56 120.576h-119.808c-14.336 0-25.6 12.288-25.6 26.624v52.224c-12.288 5.12-22.528 11.264-32.768 18.432l-46.080-25.6c-5.12-4.096-12.288-4.096-19.456-3.072-6.144 2.048-12.288 6.144-15.36 12.288l-60.416 103.424c-7.168 12.288-2.048 28.672 10.24 35.84l45.056 25.6c0 7.168-1.024 13.312-1.024 19.456s0 12.288 1.024 18.432l-45.056 26.624c-12.288 7.168-17.408 22.528-10.24 35.84l60.416 102.4c3.072 6.144 9.216 10.24 15.36 12.288 7.168 2.048 14.336 1.024 19.456-2.048l46.080-26.624c10.24 7.168 20.48 13.312 32.768 18.432v53.248c0 14.336 11.264 25.6 25.6 25.6h119.808c14.336 0 25.6-11.264 25.6-25.6v-53.248c11.264-5.12 22.528-11.264 32.768-18.432l45.056 26.624c6.144 3.072 13.312 4.096 19.456 2.048 7.168-2.048 13.312-6.144 16.384-12.288l59.392-103.424c7.168-12.288 3.072-27.648-9.216-34.816l-45.056-26.624c0-6.144 0-12.288 0-18.432s0-12.288 0-19.456l45.056-25.6c12.288-7.168 16.384-23.552 9.216-35.84l-59.392-103.424c-3.072-6.144-9.216-10.24-15.36-12.288-7.168-1.024-14.336-1.024-20.48 3.072l-45.056 25.6c-10.24-7.168-21.504-13.312-32.768-18.432v-52.224c0-14.336-11.264-26.624-25.6-26.624zM229.376 172.8h66.56v44.032c0 11.264 7.168 21.504 17.408 24.576 18.432 6.144 33.792 15.36 48.128 27.648 8.192 7.168 20.48 8.192 29.696 3.072l38.912-21.504 32.768 57.344-37.888 22.528c-9.216 5.12-14.336 16.384-12.288 26.624s3.072 19.456 3.072 28.672c0 8.192-1.024 17.408-3.072 27.648-2.048 11.264 3.072 21.504 12.288 27.648l37.888 21.504-32.768 58.368-38.912-22.528c-9.216-5.12-21.504-4.096-29.696 3.072-14.336 12.288-30.72 21.504-48.128 27.648-10.24 4.096-17.408 14.336-17.408 24.576v44.032h-66.56v-44.032c0-10.24-7.168-20.48-17.408-24.576-18.432-6.144-34.816-15.36-49.152-27.648-8.192-7.168-19.456-8.192-29.696-3.072l-37.888 22.528-33.792-58.368 37.888-21.504c10.24-6.144 15.36-16.384 13.312-27.648-2.048-9.216-3.072-18.432-3.072-27.648s1.024-18.432 3.072-27.648c2.048-11.264-3.072-22.528-13.312-27.648l-37.888-22.528 33.792-57.344 37.888 21.504c10.24 6.144 21.504 4.096 29.696-3.072 14.336-11.264 30.72-21.504 49.152-27.648 10.24-3.072 16.384-13.312 16.384-24.576v-44.032zM262.144 288.512c-53.248 0-96.256 44.032-96.256 97.28s43.008 96.256 96.256 96.256 97.28-43.008 97.28-96.256-43.008-97.28-97.28-97.28zM262.144 430.848c-24.576 0-45.056-20.48-45.056-45.056s20.48-45.056 45.056-45.056 45.056 20.48 45.056 45.056c0 24.576-20.48 45.056-45.056 45.056zM702.464 54.016c-14.336 0-25.6 11.264-25.6 25.6v53.248c-12.288 5.12-22.528 11.264-32.768 18.432l-46.080-26.624c-5.12-3.072-12.288-4.096-19.456-3.072-6.144 2.048-12.288 6.144-15.36 12.288l-60.416 103.424c-7.168 12.288-3.072 27.648 9.216 35.84l45.056 25.6c0 7.168-1.024 13.312-1.024 19.456s1.024 12.288 1.024 18.432l-45.056 26.624c-12.288 7.168-17.408 22.528-10.24 34.816l59.392 103.424c3.072 6.144 9.216 11.264 15.36 12.288 7.168 2.048 14.336 1.024 20.48-2.048l45.056-26.624c10.24 8.192 21.504 14.336 32.768 19.456v52.224c0 14.336 11.264 26.624 25.6 26.624h119.808c0 0 0 0 0 0 14.336 0 25.6-11.264 25.6-25.6v-52.224c11.264-6.144 22.528-12.288 32.768-19.456l46.080 26.624c5.12 4.096 12.288 5.12 19.456 3.072 6.144-2.048 12.288-6.144 15.36-12.288l60.416-103.424c7.168-12.288 3.072-27.648-9.216-34.816l-45.056-26.624c0-6.144 1.024-12.288 1.024-19.456 0-6.144-1.024-12.288-1.024-18.432l45.056-25.6c6.144-4.096 10.24-9.216 12.288-16.384 2.048-6.144 1.024-13.312-2.048-19.456l-59.392-103.424c-3.072-6.144-9.216-10.24-16.384-12.288-6.144-2.048-13.312-1.024-19.456 2.048l-45.056 26.624c-10.24-7.168-21.504-13.312-32.768-19.456v-52.224c0-7.168-2.048-13.312-7.168-18.432s-11.264-7.168-18.432-7.168l-119.808-1.024c0 0 0 0 0 0zM646.144 208.64c6.144 0 11.264-2.048 16.384-6.144 14.336-12.288 30.72-21.504 48.128-27.648 11.264-4.096 17.408-13.312 17.408-24.576l1.024-44.032h66.56v44.032c0 11.264 7.168 21.504 17.408 24.576 17.408 6.144 33.792 16.384 48.128 28.672 8.192 7.168 20.48 8.192 29.696 2.048l37.888-21.504 33.792 58.368-37.888 21.504c-10.24 6.144-15.36 16.384-13.312 27.648 2.048 10.24 3.072 18.432 3.072 27.648s-1.024 18.432-3.072 27.648c-2.048 11.264 3.072 22.528 12.288 27.648l37.888 22.528-33.792 57.344-37.888-21.504c-9.216-6.144-21.504-5.12-29.696 2.048-14.336 12.288-30.72 21.504-48.128 27.648-11.264 4.096-17.408 14.336-18.432 24.576v44.032h-66.56v-44.032c0-11.264-7.168-20.48-17.408-24.576-17.408-6.144-33.792-15.36-48.128-27.648-8.192-7.168-20.48-9.216-29.696-3.072l-37.888 21.504-33.792-58.368 37.888-21.504c10.24-6.144 15.36-16.384 13.312-27.648-2.048-9.216-3.072-18.432-3.072-27.648s1.024-18.432 3.072-27.648c2.048-11.264-3.072-22.528-12.288-27.648l-37.888-22.528 33.792-57.344 37.888 21.504c4.096 3.072 8.192 4.096 13.312 4.096zM761.856 221.952c-53.248 0-97.28 43.008-97.28 96.256s43.008 97.28 96.256 97.28c53.248 0 97.28-43.008 97.28-96.256 0-25.6-9.216-50.176-27.648-68.608s-43.008-28.672-68.608-28.672c0 0 0 0 0 0zM761.856 363.264c-25.6 0-45.056-19.456-45.056-45.056 0-24.576 19.456-44.032 45.056-44.032v0c11.264 0 22.528 4.096 31.744 13.312 8.192 8.192 12.288 19.456 12.288 31.744 0 24.576-19.456 44.032-44.032 44.032z" />
<glyph unicode="&#xe82a;" glyph-name="turbomachinery" d="M478.208 318.208c-18.432 18.432-18.432 49.152 0 67.584s49.152 18.432 67.584 0c18.432-18.432 18.432-49.152 0-67.584s-49.152-18.432-67.584 0zM874.496-10.496c-97.28-96.256-225.28-149.504-362.496-149.504s-265.216 53.248-362.496 149.504c-199.68 199.68-199.68 525.312 0 724.992 97.28 96.256 225.28 149.504 362.496 149.504s265.216-53.248 362.496-149.504c199.68-199.68 199.68-525.312 0-724.992zM950.272 317.184c-43.008 5.12-65.536 19.456-83.968 31.744-17.408 11.264-29.696 20.48-64.512 20.48-57.344 0-91.136-22.528-105.472-33.792 0-7.168 0-13.312-1.024-19.456-2.048-6.144-4.096-12.288-6.144-18.432-1.024-6.144-3.072-11.264-5.12-17.408-1.024-3.072-3.072-6.144-5.12-9.216 29.696-9.216 65.536-26.624 100.352-61.44 39.936-39.936 46.080-71.68 51.2-96.256 3.072-15.36 6.144-28.672 18.432-45.056 60.416 72.704 95.232 159.744 101.376 248.832zM177.152 66.304c33.792 27.648 60.416 32.768 81.92 36.864 20.48 4.096 34.816 7.168 60.416 32.768 39.936 39.936 48.128 79.872 50.176 97.28-4.096 5.12-9.216 10.24-12.288 15.36-4.096 5.12-6.144 11.264-9.216 16.384s-6.144 10.24-8.192 15.36c-1.024 4.096-2.048 7.168-3.072 10.24-27.648-14.336-64.512-26.624-114.688-26.624-56.32 0-82.944 17.408-104.448 31.744-13.312 9.216-23.552 16.384-44.032 19.456 7.168-90.112 41.984-177.152 103.424-248.832zM73.728 386.816c43.008-4.096 65.536-19.456 83.968-31.744 17.408-11.264 29.696-19.456 64.512-19.456 57.344 0 91.136 21.504 105.472 33.792 0 6.144 0 12.288 2.048 18.432 1.024 7.168 3.072 12.288 5.12 18.432 1.024 6.144 3.072 11.264 5.12 17.408 1.024 3.072 3.072 6.144 5.12 9.216-29.696 9.216-65.536 26.624-100.352 61.44-39.936 39.936-46.080 71.68-51.2 96.256-3.072 16.384-6.144 28.672-18.432 45.056-60.416-72.704-95.232-159.744-101.376-248.832zM434.176 268.032c43.008-38.912 112.64-38.912 155.648 0 3.072 3.072 7.168 7.168 10.24 11.264 2.048 3.072 5.12 5.12 7.168 9.216 3.072 3.072 4.096 7.168 6.144 10.24s3.072 6.144 5.12 9.216c1.024 3.072 2.048 7.168 3.072 11.264 1.024 3.072 2.048 7.168 3.072 10.24 1.024 5.12 1.024 9.216 1.024 14.336 1.024 5.12 1.024 11.264 0 16.384 0 5.12 0 10.24-1.024 14.336s-2.048 7.168-3.072 11.264c-1.024 3.072-2.048 7.168-3.072 10.24-2.048 3.072-3.072 6.144-5.12 9.216-2.048 4.096-4.096 7.168-6.144 11.264-2.048 3.072-5.12 6.144-7.168 9.216-11.264 13.312-25.6 24.576-41.984 31.744 0 0-1.024 0-1.024 1.024-6.144 2.048-12.288 4.096-18.432 5.12-1.024 0-2.048 1.024-3.072 1.024-8.192 2.048-15.36 2.048-23.552 2.048s-15.36 0-22.528-2.048c-2.048 0-3.072-1.024-4.096-1.024-6.144-1.024-12.288-3.072-18.432-5.12 0-1.024 0-1.024-1.024-1.024-16.384-7.168-30.72-18.432-41.984-31.744-2.048-3.072-5.12-6.144-7.168-10.24-2.048-3.072-4.096-6.144-6.144-10.24-2.048-3.072-3.072-6.144-5.12-9.216-1.024-3.072-2.048-7.168-3.072-11.264-1.024-3.072-2.048-7.168-3.072-10.24-1.024-5.12-1.024-9.216-1.024-14.336-1.024-5.12-1.024-11.264 0-16.384 0-5.12 0-9.216 1.024-14.336 1.024-3.072 2.048-7.168 3.072-10.24 1.024-4.096 2.048-8.192 3.072-11.264 2.048-3.072 3.072-6.144 5.12-9.216 2.048-4.096 3.072-7.168 6.144-10.24 2.048-4.096 5.12-7.168 7.168-10.24 3.072-3.072 7.168-7.168 10.24-10.24zM654.336 619.264c39.936 39.936 71.68 46.080 96.256 51.2 16.384 3.072 28.672 6.144 45.056 18.432-70.656 59.392-156.672 95.232-248.832 102.4-5.12-44.032-19.456-66.56-31.744-84.992-11.264-17.408-19.456-29.696-19.456-64.512 0-57.344 21.504-91.136 33.792-105.472 22.528-2.048 44.032-7.168 63.488-17.408 9.216 29.696 26.624 65.536 61.44 100.352zM475.136 791.296c-92.16-8.192-179.2-44.032-248.832-104.448 27.648-33.792 32.768-60.416 37.888-81.92 3.072-20.48 6.144-34.816 31.744-60.416 39.936-39.936 79.872-48.128 97.28-50.176 17.408 14.336 36.864 25.6 57.344 32.768-14.336 27.648-26.624 65.536-26.624 114.688 0 56.32 17.408 82.944 31.744 104.448 9.216 13.312 16.384 23.552 19.456 45.056zM228.352 15.104c70.656-59.392 156.672-95.232 248.832-102.4 5.12 44.032 19.456 66.56 31.744 84.992 11.264 17.408 20.48 29.696 20.48 65.536 0 56.32-22.528 90.112-33.792 104.448-7.168 0-14.336 0-20.48 2.048-3.072 0-4.096 1.024-6.144 2.048-10.24 2.048-20.48 5.12-29.696 8.192-1.024 1.024-1.024 1.024-2.048 2.048-2.048 1.024-4.096 2.048-6.144 3.072-9.216-29.696-26.624-65.536-61.44-100.352-39.936-39.936-71.68-46.080-96.256-51.2-15.36-3.072-28.672-6.144-45.056-18.432zM548.864-86.272c92.16 7.168 179.2 43.008 248.832 103.424-27.648 33.792-32.768 60.416-36.864 81.92-4.096 20.48-7.168 34.816-32.768 60.416-38.912 39.936-78.848 48.128-97.28 50.176-13.312-11.264-27.648-21.504-44.032-27.648-1.024-1.024-1.024-1.024-2.048-2.048-4.096-1.024-8.192-2.048-11.264-3.072 14.336-27.648 26.624-65.536 26.624-114.688 0-56.32-17.408-82.944-31.744-104.448-9.216-13.312-16.384-23.552-19.456-44.032zM950.272 389.888c-7.168 89.088-41.984 176.128-103.424 247.808-33.792-27.648-60.416-32.768-81.92-36.864-20.48-4.096-34.816-7.168-60.416-31.744-39.936-40.96-48.128-80.896-50.176-98.304 4.096-5.12 9.216-9.216 12.288-15.36 4.096-5.12 6.144-11.264 9.216-16.384s6.144-10.24 8.192-15.36c2.048-4.096 2.048-7.168 3.072-10.24 27.648 14.336 65.536 26.624 114.688 26.624 56.32 0 82.944-17.408 104.448-31.744 13.312-9.216 23.552-15.36 44.032-18.432z" />
<glyph unicode="&#xe82b;" glyph-name="down-arrow" d="M1024 590.592c0-9.216-3.072-18.432-10.24-25.6l-476.16-476.16c-14.336-14.336-36.864-14.336-51.2 0l-476.16 476.16c-14.336 14.336-14.336 36.864 0 50.176 14.336 14.336 36.864 14.336 51.2 0l450.56-450.56 451.584 450.56c13.312 14.336 35.84 14.336 50.176 0 7.168-7.168 10.24-15.36 10.24-24.576z" />
<glyph unicode="&#xe82c;" glyph-name="download" d="M988.16-148.736h-952.32c-19.456 0-35.84 16.384-35.84 35.84s16.384 35.84 35.84 35.84h952.32c19.456 0 35.84-16.384 35.84-35.84s-16.384-35.84-35.84-35.84zM537.6 1.792l412.672 428.032c10.24 11.264 12.288 25.6 7.168 38.912-6.144 13.312-18.432 22.528-32.768 22.528h-198.656v325.632c0 19.456-16.384 35.84-35.84 35.84h-360.448c-19.456 0-34.816-16.384-34.816-35.84v-325.632h-195.584c-14.336 0-26.624-9.216-32.768-22.528-5.12-13.312-3.072-27.648 7.168-38.912l412.672-428.032c6.144-7.168 16.384-11.264 25.6-11.264 10.24 0 19.456 4.096 25.6 11.264zM329.728 419.584c20.48 0 35.84 15.36 35.84 35.84v325.632h288.768v-325.632c0-20.48 16.384-35.84 35.84-35.84h150.528l-328.704-342.016-328.704 342.016h146.432z" />
<glyph unicode="&#xe82d;" glyph-name="email" d="M988.16 747.264h-952.32c-19.456 0-35.84-15.36-35.84-35.84v-719.872c0-19.456 16.384-34.816 35.84-34.816h952.32c19.456 0 35.84 15.36 35.84 34.816v719.872c0 20.48-16.384 35.84-35.84 35.84zM917.504 676.608l-405.504-395.264-405.504 395.264h811.008zM71.68 27.392v616.448l423.936-412.672c4.096-4.096 10.24-6.144 16.384-6.144s12.288 2.048 16.384 6.144l423.936 412.672v-616.448h-880.64z" />
<glyph unicode="&#xe82e;" glyph-name="embed" d="M295.936 49.92c-8.192 0-17.408 4.096-24.576 11.264l-261.12 260.096c-14.336 14.336-14.336 36.864 0 50.176l261.12 261.12c13.312 14.336 35.84 14.336 50.176 0s14.336-36.864 0-50.176l-235.52-235.52 235.52-235.52c14.336-14.336 14.336-36.864 0-51.2-7.168-6.144-16.384-10.24-25.6-10.24zM752.64 60.16l261.12 261.12c13.312 14.336 13.312 36.864 0 50.176l-261.12 261.12c-13.312 14.336-35.84 14.336-50.176 0s-14.336-36.864 0-50.176l235.52-235.52-235.52-235.52c-14.336-14.336-14.336-36.864 0-51.2 7.168-6.144 16.384-10.24 25.6-10.24s17.408 4.096 24.576 10.24zM752.64 60.16l261.12 261.12c13.312 14.336 13.312 36.864 0 50.176l-261.12 261.12c-13.312 14.336-35.84 14.336-50.176 0s-14.336-36.864 0-50.176l235.52-235.52-235.52-235.52c-14.336-14.336-14.336-36.864 0-51.2 7.168-6.144 16.384-10.24 25.6-10.24s17.408 4.096 24.576 10.24zM475.136 64.256l156.672 556.032c5.12 19.456-6.144 38.912-24.576 44.032-19.456 6.144-38.912-5.12-44.032-24.576l-156.672-556.032c-5.12-19.456 5.12-38.912 24.576-44.032 3.072-1.024 6.144-2.048 9.216-2.048 16.384 1.024 30.72 11.264 34.816 26.624z" />
<glyph unicode="&#xe82f;" glyph-name="external-link" d="M985.088 188.16c-22.528 0-39.936-17.408-39.936-38.912v-230.4h-866.304v866.304h230.4c21.504 0 38.912 17.408 38.912 38.912s-17.408 39.936-38.912 39.936h-269.312c-22.528 0-39.936-17.408-39.936-39.936v-945.152c0-21.504 17.408-38.912 39.936-38.912h945.152c21.504 0 38.912 17.408 38.912 38.912v270.336c0 21.504-17.408 38.912-38.912 38.912v0zM540.672 170.752c-10.24 0-20.48 4.096-27.648 11.264l-172.032 172.032c-14.336 14.336-14.336 38.912 0 54.272l257.024 256-134.144 134.144c-11.264 11.264-14.336 27.648-8.192 41.984s20.48 23.552 35.84 23.552h494.592c20.48 0 37.888-17.408 37.888-37.888v-494.592c0-15.36-9.216-29.696-23.552-35.84-14.336-5.12-30.72-2.048-41.984 9.216l-134.144 133.12-256-256c-7.168-7.168-17.408-11.264-27.648-11.264zM422.912 380.672l117.76-117.76 252.928 252.928c1.024 1.024 2.048 3.072 3.072 4.096 15.36 15.36 38.912 15.36 54.272 0l96.256-95.232v362.496h-363.52l95.232-95.232c15.36-15.36 15.36-39.936 0-54.272l-256-257.024z" />
<glyph unicode="&#xe830;" glyph-name="facebook" d="M768 523.008l-20.48-171.008h-150.528v-512h-221.184v512h-119.808v171.008h119.808v113.664c0 143.36 60.416 227.328 243.712 227.328h148.48v-171.008h-89.088c-71.68 0-81.92-22.528-81.92-68.608v-101.376h171.008z" />
<glyph unicode="&#xe831;" glyph-name="left-arrow" d="M750.592-160c-9.216 0-18.432 3.072-25.6 10.24l-476.16 476.16c-14.336 14.336-14.336 36.864 0 51.2l476.16 476.16c14.336 13.312 36.864 13.312 50.176 0 14.336-14.336 14.336-36.864 0-51.2l-450.56-450.56 450.56-451.584c14.336-13.312 14.336-35.84 0-50.176-7.168-7.168-15.36-10.24-24.576-10.24z" />
<glyph unicode="&#xe832;" glyph-name="lock" d="M888.832 487.168c-11.264 13.312-26.624 21.504-44.032 21.504h-74.752v97.28c0 68.608-27.648 133.12-75.776 182.272-49.152 49.152-113.664 75.776-182.272 75.776-67.584 0-131.072-25.6-182.272-75.776-49.152-48.128-75.776-113.664-75.776-182.272v-97.28h-75.776c-14.336 0-28.672-6.144-38.912-17.408-1.024-1.024-2.048-2.048-3.072-3.072-9.216-11.264-14.336-25.6-14.336-40.96v-544.768c0-16.384 5.12-30.72 13.312-40.96 11.264-13.312 26.624-21.504 43.008-21.504h666.624c14.336 0 27.648 5.12 38.912 16.384 2.048 1.024 2.048 2.048 3.072 4.096 10.24 11.264 15.36 25.6 15.36 41.984v544.768c0 15.36-5.12 30.72-13.312 39.936zM325.632 605.952c0 50.176 19.456 96.256 56.32 134.144 34.816 33.792 80.896 52.224 130.048 52.224 50.176 0 96.256-19.456 131.072-54.272 35.84-35.84 55.296-82.944 55.296-132.096v-97.28h-372.736v97.28zM831.488-88.32h-637.952v525.312h637.952v-525.312z" />
<glyph unicode="&#xe833;" glyph-name="map-pin" d="M512-160c-12.288 0-24.576 7.168-30.72 17.408l-100.352 174.080c-64.512 21.504-122.88 57.344-169.984 104.448-80.896 80.896-124.928 187.392-124.928 302.080s44.032 220.16 124.928 301.056 187.392 124.928 301.056 124.928 221.184-44.032 302.080-124.928 124.928-187.392 124.928-301.056-45.056-221.184-124.928-302.080c-48.128-47.104-106.496-82.944-171.008-104.448l-100.352-174.080c-6.144-10.24-17.408-17.408-30.72-17.408zM512 792.32c-95.232 0-184.32-36.864-250.88-103.424-67.584-67.584-104.448-156.672-104.448-250.88s36.864-184.32 104.448-251.904c41.984-41.984 95.232-73.728 153.6-90.112 8.192-2.048 16.384-8.192 20.48-16.384l76.8-132.096 76.8 132.096c4.096 8.192 12.288 14.336 20.48 16.384 58.368 16.384 111.616 48.128 153.6 90.112 138.24 139.264 138.24 364.544 0 502.784-66.56 66.56-155.648 103.424-250.88 103.424z" />
<glyph unicode="&#xe834;" glyph-name="alert" d="M512-95.488c-2.048 0-4.096 0-6.144 0h-470.016c-13.312 0-24.576 7.168-30.72 18.432-7.168 10.24-7.168 24.576 0 35.84l476.16 824.32c12.288 22.528 49.152 22.528 61.44 0l234.496-406.528c4.096-4.096 7.168-9.216 8.192-14.336l233.472-404.48c7.168-11.264 7.168-24.576 0-35.84-6.144-11.264-17.408-17.408-30.72-17.408h-476.16zM97.28-23.808h414.72c2.048 0 4.096 0 6.144-1.024l408.576 1.024-207.872 358.4c0 1.024-1.024 2.048-1.024 3.072l-205.824 356.352-414.72-717.824zM547.84 212.736v265.216c0 20.48-16.384 35.84-35.84 35.84s-35.84-15.36-35.84-35.84v-265.216c0-20.48 16.384-35.84 35.84-35.84s35.84 15.36 35.84 35.84zM512 132.864c-26.624 0-47.104-21.504-47.104-47.104 0-26.624 20.48-48.128 47.104-48.128s48.128 21.504 48.128 48.128c0 25.6-21.504 47.104-48.128 47.104z" />
<glyph unicode="&#xe835;" glyph-name="minerals" d="M861.184 42.752l160.768 468.992c4.096 11.264 2.048 23.552-4.096 32.768-7.168 9.216-17.408 14.336-29.696 14.336h-6.144l-97.28 160.768c-7.168 10.24-18.432 16.384-30.72 16.384h-122.88l-103.424 104.448c-7.168 6.144-16.384 10.24-25.6 10.24h-95.232c-9.216 0-18.432-4.096-25.6-10.24l-94.208-95.232h-177.152c-11.264 0-21.504-5.12-28.672-14.336l-129.024-172.032h-16.384c-11.264 0-22.528-5.12-28.672-14.336-7.168-9.216-9.216-21.504-5.12-32.768l160.768-468.992c2.048-5.12 5.12-9.216 8.192-13.312-10.24-17.408-17.408-37.888-17.408-60.416 0-63.488 52.224-115.712 116.736-115.712 63.488 0 115.712 52.224 115.712 115.712 0 17.408-4.096 34.816-10.24 49.152h273.408c-7.168-14.336-11.264-31.744-11.264-49.152 0-63.488 52.224-115.712 115.712-115.712 64.512 0 116.736 52.224 116.736 115.712 0 22.528-7.168 43.008-17.408 60.416 3.072 4.096 6.144 8.192 8.192 13.312zM227.328 674.56h174.080c10.24 0 19.456 3.072 25.6 10.24l95.232 94.208h64.512l104.448-103.424c7.168-7.168 15.36-11.264 25.6-11.264h116.736l65.536-105.472h-757.76l86.016 115.712zM86.016 488.192h851.968l-136.192-398.336h-579.584l-136.192 398.336zM270.336-75.008c-24.576 0-45.056 19.456-45.056 44.032 0 25.6 20.48 45.056 45.056 45.056s45.056-19.456 45.056-45.056c0-24.576-20.48-44.032-45.056-44.032zM753.664-75.008c-24.576 0-44.032 19.456-44.032 44.032 0 25.6 19.456 45.056 44.032 45.056s45.056-19.456 45.056-45.056c0-24.576-20.48-44.032-45.056-44.032z" />
<glyph unicode="&#xe836;" glyph-name="quote-marks" d="M35.84-64.768c-4.096 0-9.216 0-13.312 2.048-13.312 6.144-22.528 18.432-22.528 33.792v761.856c0 20.48 16.384 35.84 35.84 35.84h379.904c19.456 0 35.84-15.36 35.84-35.84v-365.568c0-9.216-3.072-18.432-10.24-24.576l-379.904-397.312c-7.168-7.168-16.384-10.24-25.6-10.24zM71.68 698.112v-638.976l308.224 322.56v316.416h-308.224zM608.256-64.768c-5.12 0-9.216 0-13.312 2.048-13.312 5.12-22.528 18.432-22.528 33.792v761.856c0 20.48 16.384 35.84 35.84 35.84h379.904c19.456 0 35.84-15.36 35.84-35.84v-365.568c0-9.216-3.072-18.432-10.24-24.576l-379.904-397.312c-7.168-7.168-16.384-10.24-25.6-10.24zM644.096 698.112v-638.976l308.224 322.56v316.416h-308.224z" />
<glyph unicode="&#xe837;" glyph-name="region" d="M512 864c141.312 0 269.312-57.344 362.496-149.504 92.16-93.184 149.504-221.184 149.504-362.496s-57.344-269.312-149.504-362.496c-93.184-92.16-221.184-149.504-362.496-149.504s-269.312 57.344-361.472 150.528c-93.184 92.16-150.528 220.16-150.528 361.472s57.344 269.312 150.528 362.496c92.16 92.16 220.16 149.504 361.472 149.504v0zM488.448-81.152v0 165.888c-47.104-2.048-91.136-11.264-133.12-26.624-6.144-2.048-11.264-5.12-17.408-7.168 3.072-7.168 7.168-14.336 11.264-21.504 25.6-47.104 56.32-83.968 91.136-104.448 16.384-3.072 31.744-5.12 48.128-6.144v0zM818.176 658.176v0c-3.072 4.096-7.168 7.168-10.24 10.24-19.456-14.336-39.936-26.624-60.416-37.888 27.648-72.704 45.056-160.768 48.128-254.976h149.504c-6.144 110.592-53.248 209.92-126.976 282.624v0zM770.048 700.16v0c-26.624 19.456-56.32 36.864-88.064 50.176 12.288-15.36 23.552-33.792 34.816-53.248 4.096-7.168 8.192-15.36 12.288-23.552 14.336 8.192 27.648 16.384 40.96 26.624v0zM583.68 779.008v0c-15.36 3.072-31.744 5.12-48.128 6.144v-165.888c47.104 2.048 91.136 11.264 133.12 26.624 6.144 3.072 11.264 5.12 17.408 7.168-3.072 7.168-7.168 15.36-11.264 21.504-25.6 47.104-56.32 83.968-91.136 104.448v0zM488.448 785.152v0c-16.384-1.024-31.744-3.072-48.128-6.144-34.816-20.48-65.536-57.344-91.136-104.448-4.096-6.144-8.192-14.336-11.264-21.504 5.12-2.048 11.264-4.096 17.408-7.168 41.984-15.36 86.016-24.576 133.12-27.648v166.912zM342.016 750.336v0c-31.744-13.312-61.44-30.72-88.064-50.176 13.312-10.24 26.624-18.432 40.96-26.624 4.096 8.192 8.192 16.384 12.288 23.552 11.264 19.456 22.528 37.888 34.816 53.248v0zM216.064 668.416v0c-3.072-3.072-7.168-6.144-10.24-10.24-73.728-72.704-120.832-172.032-125.952-282.624h148.48c3.072 94.208 20.48 182.272 48.128 254.976-20.48 11.264-40.96 23.552-60.416 37.888v0zM79.872 328.448v0c5.12-110.592 52.224-209.92 125.952-282.624l10.24-10.24c19.456 14.336 39.936 26.624 60.416 37.888-27.648 73.728-45.056 160.768-48.128 254.976h-148.48zM253.952 3.84v0c26.624-20.48 56.32-36.864 88.064-50.176-12.288 15.36-23.552 33.792-34.816 53.248-4.096 7.168-8.192 15.36-12.288 23.552-14.336-8.192-27.648-16.384-40.96-26.624v0zM535.552-81.152v0c16.384 1.024 32.768 3.072 48.128 6.144 34.816 20.48 65.536 57.344 91.136 104.448 4.096 7.168 8.192 14.336 11.264 21.504-5.12 2.048-11.264 5.12-17.408 6.144-41.984 16.384-86.016 25.6-133.12 27.648v-165.888zM681.984-46.336v0c31.744 13.312 61.44 29.696 88.064 50.176-13.312 10.24-26.624 18.432-40.96 26.624-4.096-8.192-8.192-16.384-12.288-23.552-11.264-19.456-22.528-37.888-34.816-53.248v0zM807.936 35.584v0l10.24 10.24c73.728 72.704 120.832 172.032 126.976 282.624h-149.504c-3.072-94.208-20.48-181.248-48.128-254.976 20.48-11.264 40.96-23.552 60.416-37.888v0zM704.512 610.048v0c-6.144-3.072-13.312-5.12-19.456-8.192-47.104-17.408-97.28-27.648-149.504-30.72v-195.584h211.968c-2.048 87.040-17.408 166.912-43.008 234.496v0zM488.448 571.136v0c-52.224 3.072-102.4 13.312-149.504 30.72-6.144 3.072-13.312 5.12-19.456 8.192-25.6-67.584-40.96-147.456-44.032-234.496h212.992v195.584zM488.448 131.84v0 196.608h-212.992c3.072-87.040 18.432-166.912 44.032-234.496 6.144 3.072 13.312 5.12 19.456 8.192 47.104 17.408 97.28 27.648 149.504 29.696v0zM535.552 131.84v0c52.224-2.048 102.4-12.288 149.504-29.696 6.144-3.072 13.312-5.12 19.456-8.192 25.6 67.584 40.96 147.456 43.008 234.496h-211.968v-196.608z" />
<glyph unicode="&#xe838;" glyph-name="right-arrow" d="M273.408 864c9.216 0 18.432-3.072 25.6-10.24l476.16-476.16c14.336-14.336 14.336-36.864 0-51.2l-476.16-476.16c-14.336-13.312-36.864-13.312-50.176 0s-14.336 36.864 0 51.2l450.56 450.56-450.56 450.56c-14.336 14.336-14.336 36.864 0 51.2 7.168 7.168 16.384 10.24 24.576 10.24z" />
<glyph unicode="&#xe839;" glyph-name="save" d="M988.16 864h-952.32c-19.456 0-35.84-16.384-35.84-35.84v-952.32c0-19.456 16.384-35.84 35.84-35.84h952.32c19.456 0 35.84 16.384 35.84 35.84v952.32c0 19.456-16.384 35.84-35.84 35.84zM786.432 792.32v-309.248h-116.736v309.248h116.736zM598.016 792.32v-309.248h-359.424v309.248h359.424zM952.32-88.32h-880.64v880.64h95.232v-345.088c0-19.456 15.36-35.84 35.84-35.84h618.496c20.48 0 35.84 16.384 35.84 35.84v345.088h95.232v-880.64z" />
<glyph unicode="&#xe83a;" glyph-name="up-arrow" d="M0 114.432c0 8.192 3.072 17.408 10.24 24.576l476.16 476.16c14.336 14.336 36.864 14.336 51.2 0l476.16-476.16c13.312-13.312 13.312-36.864 0-50.176-14.336-14.336-36.864-14.336-51.2 0l-450.56 450.56-450.56-450.56c-14.336-14.336-36.864-14.336-51.2 0-7.168 7.168-10.24 16.384-10.24 25.6z" />
<glyph unicode="&#xe83b;" glyph-name="upload" d="M35.84 852.736h952.32c19.456 0 35.84-16.384 35.84-35.84s-16.384-35.84-35.84-35.84h-952.32c-19.456 0-35.84 16.384-35.84 35.84s16.384 35.84 35.84 35.84zM486.4 702.208l-412.672-428.032c-10.24-10.24-12.288-25.6-7.168-38.912 6.144-13.312 18.432-21.504 32.768-21.504h198.656v-326.656c0-19.456 16.384-35.84 35.84-35.84h360.448c19.456 0 35.84 16.384 35.84 35.84v326.656h194.56c14.336 0 27.648 8.192 32.768 21.504s3.072 28.672-7.168 38.912l-412.672 428.032c-6.144 7.168-15.36 11.264-25.6 11.264-9.216 0-19.456-4.096-25.6-11.264zM694.272 284.416c-20.48 0-35.84-15.36-35.84-35.84v-325.632h-288.768v325.632c0 20.48-15.36 35.84-35.84 35.84h-150.528l328.704 342.016 328.704-342.016h-146.432z" />
<glyph unicode="&#xe83c;" glyph-name="user-account" d="M899.072-160h-774.144c-20.48 0-35.84 16.384-35.84 35.84v35.84c0 106.496 63.488 200.704 161.792 241.664 31.744 13.312 64.512 19.456 99.328 19.456h323.584c17.408 0 34.816-1.024 51.2-4.096 16.384-4.096 32.768-8.192 48.128-15.36 16.384-6.144 31.744-14.336 46.080-24.576 72.704-48.128 115.712-129.024 115.712-217.088v-35.84c0-19.456-15.36-35.84-35.84-35.84zM160.768-88.32h703.488c0 63.488-31.744 122.88-84.992 157.696-10.24 7.168-21.504 13.312-32.768 18.432-11.264 4.096-23.552 8.192-35.84 10.24-11.264 3.072-24.576 4.096-36.864 4.096h-323.584c-24.576 0-49.152-5.12-71.68-14.336-71.68-29.696-118.784-99.328-118.784-176.128v0zM512 221.952v0c-43.008 0-84.992 9.216-124.928 25.6-116.736 49.152-195.584 167.936-195.584 295.936 0 41.984 8.192 82.944 23.552 122.88 49.152 117.76 168.96 197.632 296.96 197.632 177.152 0 320.512-144.384 320.512-320.512 0-130.048-76.8-245.76-195.584-295.936-39.936-17.408-81.92-25.6-124.928-25.6zM512 792.32c-99.328 0-192.512-61.44-230.4-153.6-12.288-30.72-19.456-62.464-19.456-95.232 0-99.328 61.44-191.488 152.576-230.4 30.72-13.312 63.488-19.456 97.28-19.456v0c33.792 0 66.56 6.144 97.28 19.456 92.16 38.912 152.576 129.024 152.576 229.376 0 138.24-112.64 249.856-249.856 249.856z" />
<glyph unicode="&#xe83d;" glyph-name="valve" d="M988.16 575.232h-111.616c-19.456 0-35.84-15.36-35.84-34.816v-59.392h-128v107.52c0 19.456-16.384 35.84-35.84 35.84h-119.808v147.456h135.168c20.48 0 35.84 15.36 35.84 35.84s-15.36 35.84-35.84 35.84h-343.040c-19.456 0-34.816-16.384-34.816-35.84s15.36-35.84 34.816-35.84h136.192v-147.456h-124.928c-19.456 0-35.84-16.384-35.84-35.84v-107.52h-141.312v59.392c0 19.456-16.384 34.816-35.84 34.816h-111.616c-19.456 0-35.84-15.36-35.84-34.816v-644.096c0-19.456 16.384-35.84 35.84-35.84h111.616c19.456 0 35.84 16.384 35.84 35.84v59.392h658.432v-59.392c0-19.456 15.36-35.84 34.816-35.84h111.616c19.456 0 35.84 16.384 35.84 35.84v644.096c0 19.456-16.384 34.816-35.84 34.816zM111.616-67.84h-39.936v572.416h39.936v-572.416zM396.288 552.704h244.736v-71.68h-244.736v71.68zM187.392 27.392v381.952h654.336v-381.952h-654.336zM952.32-67.84h-39.936v572.416h39.936v-572.416z" />
<glyph unicode="&#xe83e;" glyph-name="volume-down" d="M603.136-70.912c-6.144 0-12.288 2.048-17.408 5.12l-259.072 199.68h-198.656c-16.384 0-29.696 13.312-29.696 28.672v378.88c0 16.384 13.312 29.696 29.696 29.696h198.656l259.072 198.656c9.216 6.144 20.48 7.168 30.72 2.048 10.24-4.096 16.384-14.336 16.384-25.6v-788.48c0-11.264-6.144-21.504-16.384-25.6-4.096-2.048-8.192-3.072-13.312-3.072zM157.696 192.256h179.2c6.144 0 12.288-2.048 17.408-6.144l220.16-167.936v667.648l-220.16-167.936c-5.12-4.096-11.264-6.144-17.408-6.144h-179.2v-319.488zM733.184 13.056c58.368 34.816 107.52 84.992 141.312 144.384s51.2 125.952 51.2 194.56c0 68.608-17.408 135.168-51.2 194.56s-82.944 109.568-141.312 144.384c-14.336 9.216-31.744 4.096-39.936-9.216-9.216-14.336-4.096-32.768 9.216-40.96 50.176-29.696 92.16-72.704 120.832-122.88 27.648-50.176 43.008-107.52 43.008-165.888s-14.336-115.712-43.008-165.888c-28.672-50.176-70.656-93.184-120.832-122.88-13.312-8.192-18.432-26.624-9.216-40.96 5.12-9.216 15.36-14.336 24.576-14.336 5.12 1.024 10.24 2.048 15.36 5.12z" />
<glyph unicode="&#xe83f;" glyph-name="volume-up" d="M504.832-70.912c-6.144 0-12.288 2.048-17.408 5.12l-259.072 199.68h-198.656c-16.384 0-29.696 13.312-29.696 28.672v378.88c0 16.384 13.312 29.696 29.696 29.696h198.656l259.072 198.656c8.192 6.144 20.48 7.168 30.72 2.048 10.24-4.096 16.384-14.336 16.384-25.6v-788.48c0-11.264-6.144-21.504-16.384-25.6-4.096-2.048-8.192-3.072-13.312-3.072zM59.392 192.256h179.2c6.144 0 12.288-2.048 17.408-6.144l219.136-167.936v667.648l-219.136-167.936c-5.12-4.096-11.264-6.144-18.432-6.144h-178.176v-319.488zM634.88 13.056c58.368 34.816 107.52 84.992 141.312 144.384 32.768 59.392 51.2 125.952 51.2 194.56s-18.432 135.168-51.2 194.56c-33.792 59.392-82.944 109.568-141.312 144.384-14.336 9.216-31.744 4.096-40.96-9.216-8.192-14.336-3.072-32.768 10.24-40.96 50.176-29.696 92.16-72.704 119.808-122.88 28.672-50.176 44.032-107.52 44.032-165.888s-15.36-115.712-44.032-165.888c-28.672-50.176-69.632-93.184-119.808-122.88-13.312-8.192-18.432-26.624-10.24-40.96 6.144-9.216 15.36-14.336 25.6-14.336 5.12 1.024 10.24 2.048 15.36 5.12zM775.168-87.296c75.776 46.080 139.264 110.592 182.272 187.392 44.032 76.8 66.56 163.84 66.56 251.904s-22.528 175.104-66.56 251.904c-43.008 76.8-106.496 141.312-182.272 187.392-14.336 8.192-31.744 4.096-39.936-10.24-9.216-14.336-4.096-32.768 9.216-40.96 67.584-39.936 122.88-97.28 161.792-164.864 38.912-68.608 58.368-145.408 58.368-223.232s-19.456-155.648-58.368-223.232c-38.912-67.584-94.208-124.928-161.792-164.864-13.312-9.216-18.432-26.624-9.216-40.96 5.12-9.216 15.36-14.336 24.576-14.336 5.12 0 10.24 1.024 15.36 4.096z" />
<glyph unicode="&#xe840;" glyph-name="linkedin" d="M122.88 613.12h-1.024c-74.752 0-121.856 51.2-121.856 114.688 0 64.512 49.152 113.664 123.904 113.664 75.776 0 121.856-49.152 122.88-113.664 1.024-63.488-47.104-114.688-123.904-114.688zM232.448-137.472h-220.16v660.48h220.16v-660.48zM1024-137.472h-219.136v353.28c0 89.088-31.744 149.504-111.616 149.504-60.416 0-96.256-40.96-112.64-79.872-5.12-14.336-7.168-33.792-7.168-54.272v-368.64h-219.136c2.048 599.040 0 660.48 0 660.48h219.136v-95.232h-1.024c28.672 45.056 79.872 110.592 198.656 110.592 145.408 0 252.928-94.208 252.928-296.96v-378.88z" />
<glyph unicode="&#xe841;" glyph-name="pump" d="M512-160c-244.736 0-443.392 198.656-443.392 443.392s198.656 443.392 443.392 443.392c35.84 0 71.68-5.12 106.496-13.312v114.688c0 19.456 16.384 35.84 35.84 35.84h265.216c19.456 0 35.84-16.384 35.84-35.84v-544.768c0-244.736-198.656-443.392-443.392-443.392zM512 655.104c-204.8 0-371.712-166.912-371.712-371.712s166.912-371.712 371.712-371.712 371.712 166.912 371.712 371.712v508.928h-193.536v-128c0-11.264-5.12-22.528-15.36-28.672-9.216-7.168-21.504-8.192-32.768-4.096-41.984 15.36-86.016 23.552-130.048 23.552zM512 105.216c-98.304 0-178.176 79.872-178.176 178.176s79.872 178.176 178.176 178.176 178.176-79.872 178.176-178.176c0-98.304-79.872-178.176-178.176-178.176zM512 389.888c-59.392 0-106.496-48.128-106.496-106.496 0-59.392 48.128-107.52 106.496-107.52s106.496 48.128 106.496 107.52c0 58.368-47.104 106.496-106.496 106.496zM512 594.688c-22.528 0-40.96-18.432-40.96-40.96s18.432-40.96 40.96-40.96c22.528 0 40.96 18.432 40.96 40.96s-18.432 40.96-40.96 40.96zM512 47.872c-22.528 0-40.96-18.432-40.96-40.96s18.432-40.96 40.96-40.96c22.528 0 40.96 18.432 40.96 40.96s-18.432 40.96-40.96 40.96zM826.368 280.32c0 22.528-18.432 40.96-40.96 40.96s-40.96-18.432-40.96-40.96c0-22.528 18.432-40.96 40.96-40.96s40.96 18.432 40.96 40.96zM279.552 280.32c0 22.528-18.432 40.96-40.96 40.96s-40.96-18.432-40.96-40.96c0-22.528 18.432-40.96 40.96-40.96s40.96 18.432 40.96 40.96z" />
<glyph unicode="&#xe842;" glyph-name="power" d="M986.112 539.392h-104.448v86.016c0 20.48-16.384 37.888-36.864 37.888h-807.936c-20.48 0-36.864-17.408-36.864-37.888v-546.816c0-20.48 16.384-36.864 36.864-36.864h807.936c20.48 0 36.864 16.384 36.864 36.864v86.016h104.448c20.48 0 37.888 16.384 37.888 37.888v299.008c0 21.504-17.408 37.888-37.888 37.888zM807.936 115.456h-176.128v473.088h176.128v-473.088zM947.2 241.408h-65.536v221.184h65.536v-221.184z" />
<glyph unicode="&#xe843;" glyph-name="twitter" d="M918.528 560.896c1.024-9.216 1.024-18.432 1.024-27.648 0-277.504-210.944-596.992-596.992-596.992-118.784 0-229.376 34.816-322.56 94.208 17.408-2.048 32.768-3.072 51.2-3.072 97.28 0 188.416 33.792 260.096 90.112-92.16 2.048-169.984 62.464-196.608 145.408 13.312-2.048 26.624-3.072 39.936-3.072 18.432 0 37.888 3.072 55.296 7.168-96.256 19.456-167.936 103.424-167.936 205.824 0 1.024 0 2.048 0 3.072 27.648-16.384 60.416-25.6 94.208-26.624-56.32 36.864-93.184 101.376-93.184 174.080 0 38.912 10.24 74.752 28.672 106.496 103.424-128 258.048-210.944 432.128-220.16-3.072 15.36-5.12 31.744-5.12 48.128 0 115.712 94.208 209.92 209.92 209.92 60.416 0 115.712-25.6 153.6-66.56 47.104 9.216 93.184 26.624 133.12 51.2-15.36-49.152-48.128-90.112-92.16-115.712 41.984 4.096 82.944 16.384 120.832 32.768-28.672-41.984-64.512-78.848-105.472-108.544z" />
<glyph unicode="&#xe844;" glyph-name="document" d="M947.2 572.16l-273.408 280.576c-7.168 7.168-17.408 11.264-27.648 11.264h-490.496c-49.152 0-90.112-39.936-90.112-90.112v-843.776c0-50.176 40.96-90.112 90.112-90.112h712.704c49.152 0 90.112 39.936 90.112 90.112v614.4c0 10.24-4.096 20.48-11.264 27.648zM835.584 576.256h-182.272v187.392l182.272-187.392zM868.352-83.2h-712.704c-7.168 0-12.288 6.144-12.288 13.312v843.776c0 7.168 5.12 13.312 12.288 13.312h445.44v-236.544c0-14.336 12.288-26.624 25.6-26.624h253.952v-593.92c0-7.168-5.12-13.312-12.288-13.312zM743.424 18.176h-462.848c-21.504 0-38.912 17.408-38.912 37.888 0 21.504 17.408 38.912 38.912 38.912h462.848c21.504 0 38.912-17.408 38.912-38.912 0-20.48-17.408-37.888-38.912-37.888zM743.424 171.776h-462.848c-21.504 0-38.912 17.408-38.912 38.912s17.408 38.912 38.912 38.912h462.848c21.504 0 38.912-17.408 38.912-38.912s-17.408-38.912-38.912-38.912zM743.424 326.4h-462.848c-21.504 0-38.912 17.408-38.912 38.912 0 20.48 17.408 37.888 38.912 37.888h462.848c21.504 0 38.912-17.408 38.912-37.888 0-21.504-17.408-38.912-38.912-38.912z" />
<glyph unicode="&#xe954;" glyph-name="printer" d="M256 832h512v-128h-512v128zM960 640h-896c-35.2 0-64-28.8-64-64v-320c0-35.2 28.794-64 64-64h192v-256h512v256h192c35.2 0 64 28.8 64 64v320c0 35.2-28.8 64-64 64zM128 448c-35.346 0-64 28.654-64 64s28.654 64 64 64 64-28.654 64-64-28.652-64-64-64zM704 0h-384v320h384v-320z" />
</font>
</defs>
</svg>
